<?xml version="1.0" encoding="UTF-8"?>
<svg version="1.1" xmlns="http://www.w3.org/2000/svg" width="1024" height="1024">
<path d="M0 0 C2.73000829 -0.00242317 5.46000154 -0.00930903 8.19000244 -0.01593018 C14.80030042 -0.02918772 21.41049553 -0.02642608 28.02079733 -0.01769225 C33.39693321 -0.01088613 38.7730405 -0.01001155 44.14917946 -0.0132637 C44.91758401 -0.0137234 45.68598856 -0.0141831 46.47767809 -0.01465673 C48.03918205 -0.01561601 49.600686 -0.01658865 51.16218994 -0.0175745 C65.76275587 -0.02610456 80.36326506 -0.01633096 94.96382169 -0.0001734 C107.46760869 0.01323567 119.97131214 0.0108922 132.47509766 -0.00292969 C147.0320607 -0.0190139 161.5889742 -0.02528925 176.14594489 -0.0160929 C177.70042884 -0.01513735 179.25491279 -0.01419423 180.80939674 -0.0132637 C181.57403445 -0.01280088 182.33867215 -0.01233805 183.12648069 -0.0118612 C188.49215113 -0.00928042 193.8577899 -0.01362236 199.22345543 -0.02070236 C205.76788679 -0.02914888 212.31221032 -0.02677107 218.85662945 -0.01086013 C222.19001662 -0.00302067 225.52307726 -0.00144879 228.85648537 -0.00980759 C232.48150093 -0.01805703 236.1060186 -0.00766013 239.73100281 0.00723267 C240.76779653 0.0005405 241.80459025 -0.00615166 242.87280196 -0.01304662 C253.17328364 0.06852487 263.09509924 2.02125413 272.27856445 6.76318359 C273.40262695 7.32779297 274.52668945 7.89240234 275.68481445 8.47412109 C278.95667105 10.49837581 281.11627822 12.61114364 283.77856445 15.38818359 C285.28193989 16.7472498 286.79405621 18.09667064 288.31173706 19.43974304 C293.69560412 24.26667338 298.8466872 29.29483287 303.96655273 34.39916992 C304.94008202 35.36641227 305.91379159 36.33347319 306.88766479 37.30036926 C310.04488303 40.43682886 313.19702638 43.57836285 316.34887695 46.72021484 C317.44389778 47.81117906 318.53894882 48.90211295 319.63402939 49.9930172 C324.77730119 55.11730807 329.91820494 60.24396008 335.05618298 65.37355882 C340.95141728 71.25901404 346.8548519 77.13608141 352.76534092 83.00621587 C357.36041114 87.57100271 361.94766076 92.14355665 366.52926433 96.72185916 C369.2542373 99.44449796 371.98231585 102.16382918 374.71878433 104.87491798 C377.29361513 107.42624366 379.85848736 109.98719592 382.41649246 112.5553875 C383.78702405 113.92663971 385.16737041 115.28806118 386.54815674 116.64898682 C398.43843508 128.63779469 405.6071243 140.86446877 406.36450195 157.87255859 C406.40380325 158.68972855 406.44310455 159.5068985 406.4835968 160.34883118 C406.896979 169.76537349 406.96464858 179.18375926 406.96386719 188.6081543 C406.96609071 191.61113939 406.9844466 194.61377682 407.00317383 197.61669922 C407.00610265 199.55484903 407.00809086 201.49300055 407.0090332 203.43115234 C407.01621872 204.31457809 407.02340424 205.19800385 407.0308075 206.10820007 C406.99879644 214.83768281 405.74130978 221.28602729 399.5637207 227.75537109 C395.49048717 231.48099827 391.4017608 231.83801379 386.0559082 231.70458984 C381.14126085 231.02176577 377.86175963 228.52992986 374.46606445 224.95068359 C371.7457894 220.81989555 370.52539553 217.36369511 370.55151367 212.41430664 C370.55166473 211.4536882 370.5518158 210.49306976 370.55197144 209.50334167 C370.56229401 208.4792067 370.57261658 207.45507172 370.58325195 206.39990234 C370.5874968 204.81239922 370.5874968 204.81239922 370.59182739 203.19282532 C370.60300156 199.82032861 370.62810138 196.44809972 370.65356445 193.07568359 C370.66359781 190.78597389 370.67272304 188.49626002 370.6809082 186.20654297 C370.70293185 180.60033216 370.73638209 174.99427701 370.77856445 169.38818359 C369.12856445 169.38818359 367.47856445 169.38818359 365.77856445 169.38818359 C365.77856445 169.05818359 365.77856445 168.72818359 365.77856445 168.38818359 C340.36856445 168.38818359 314.95856445 168.38818359 288.77856445 168.38818359 C288.44856445 167.72818359 288.11856445 167.06818359 287.77856445 166.38818359 C285.76933342 165.65446889 285.76933342 165.65446889 283.34106445 165.07568359 C278.52772 163.72711726 274.31637199 161.80949417 269.9074707 159.47412109 C267.68694278 158.27465601 267.68694278 158.27465601 264.77856445 157.38818359 C260.96936467 153.89641712 257.66816578 149.99853371 254.3293457 146.06005859 C252.86505978 144.28491996 252.86505978 144.28491996 250.77856445 143.38818359 C250.44856445 144.04818359 250.11856445 144.70818359 249.77856445 145.38818359 C249.44856445 144.39818359 249.11856445 143.40818359 248.77856445 142.38818359 C249.10856445 141.72818359 249.43856445 141.06818359 249.77856445 140.38818359 C248.62489067 137.77791637 248.62489067 137.77791637 246.96606445 134.95068359 C246.42336914 133.98259766 245.88067383 133.01451172 245.3215332 132.01708984 C244.19931457 130.10505657 243.00835442 128.23286854 241.77856445 126.38818359 C242.43856445 126.38818359 243.09856445 126.38818359 243.77856445 126.38818359 C243.45546799 125.2336116 243.13237152 124.07903961 242.79948425 122.88948059 C241.75962563 118.71114087 241.46687949 114.66291481 241.44384766 110.36743164 C241.43219574 109.6103038 241.42054382 108.85317596 241.40853882 108.07310486 C241.37287992 105.59872558 241.35078591 103.12444233 241.3293457 100.64990234 C241.30806827 98.91973536 241.28609988 97.18957675 241.26347351 95.45942688 C241.21824477 91.84774567 241.17940217 88.23607259 241.14550781 84.62426758 C241.10180272 79.9926509 241.04505976 75.36130815 240.98396015 70.72989178 C240.93782661 67.16380535 240.89701834 63.59767437 240.85799217 60.03150368 C240.83894205 58.32303185 240.81858449 56.61457408 240.7968998 54.90613365 C240.76777366 52.52476166 240.74544778 50.14342393 240.72509766 47.76196289 C240.71529373 47.05595947 240.70548981 46.34995605 240.69538879 45.62255859 C240.67594292 42.58152181 240.80780976 40.30044769 241.77856445 37.38818359 C241.09181767 37.39333733 240.40507088 37.39849106 239.69751358 37.40380096 C219.78018659 37.55291701 199.86281373 37.69466397 179.94540799 37.83281463 C174.68318629 37.86940933 169.42097137 37.90684525 164.15876043 37.94495314 C127.51436782 38.21027841 90.87218766 38.45747641 54.22675705 38.32142687 C51.48164231 38.31158349 48.73652398 38.30325957 45.99140406 38.29501188 C33.94152775 38.25861574 21.89207603 38.21255729 9.84253502 38.11373615 C5.26285479 38.07992516 0.68320742 38.06204825 -3.89657211 38.04811668 C-5.98371051 38.03804611 -8.07082987 38.02086662 -10.15784073 37.9956913 C-26.12512735 37.805421 -38.87954105 39.14467776 -51.22143555 50.38818359 C-60.68113145 61.10273712 -60.65861044 73.67723431 -60.60238647 87.22753906 C-60.60584618 89.04395771 -60.61061285 90.86037425 -60.61656821 92.67678642 C-60.62906476 97.65163677 -60.6229139 102.62631394 -60.61360955 107.60116482 C-60.60681392 112.97274879 -60.61730285 118.34430326 -60.62554932 123.71588135 C-60.63888332 134.23228558 -60.63601037 144.74862555 -60.62731139 155.26503229 C-60.62053396 163.81257816 -60.61961839 172.36010603 -60.62288284 180.90765381 C-60.62334254 182.12457063 -60.62380224 183.34148744 -60.62427587 184.59528053 C-60.62523505 187.06748788 -60.62620769 189.53969523 -60.62719364 192.01190257 C-60.63574657 215.18926357 -60.62591493 238.36658896 -60.60979255 261.54394412 C-60.59638946 281.42758865 -60.59871758 301.31118064 -60.61254883 321.19482422 C-60.62860635 344.28972552 -60.6349226 367.38459562 -60.62571204 390.47950172 C-60.6247564 392.94257227 -60.62381329 395.40564282 -60.62288284 397.86871338 C-60.62242002 399.0805649 -60.62195719 400.29241642 -60.62148034 401.54099071 C-60.61889097 410.07744463 -60.62326031 418.61387874 -60.6303215 427.15032959 C-60.63873859 437.55458159 -60.6364519 447.9587657 -60.62047927 458.36300993 C-60.61259944 463.67055466 -60.60950015 468.97798622 -60.61942673 474.28553009 C-60.62837994 479.14617772 -60.62343031 484.00660749 -60.60749407 488.86723542 C-60.60414895 490.62349363 -60.60583428 492.37977033 -60.61312144 494.13601661 C-60.66673881 508.13428061 -59.15570072 519.06907473 -50.22143555 530.38818359 C-43.23102933 537.02772 -35.48927693 540.5076996 -25.84683418 540.51846886 C-24.77527679 540.5220932 -23.70371939 540.52571755 -22.59969056 540.52945173 C-20.84275386 540.52784935 -20.84275386 540.52784935 -19.05032349 540.5262146 C-17.8014233 540.52903588 -16.55252311 540.53185716 -15.26577747 540.53476393 C-11.80170287 540.54250715 -8.3376481 540.54413581 -4.87356591 540.54481506 C-1.1366009 540.54665655 2.60035257 540.55426438 6.33731079 540.56129456 C12.81260916 540.57281541 19.28790493 540.58106219 25.7632103 540.58741379 C35.99825505 540.59774353 46.23326739 540.61830762 56.46829224 540.64053345 C59.97041882 540.64801294 63.47254555 540.65542669 66.97467232 540.66282082 C67.84986777 540.66467138 68.72506323 540.66652195 69.62677976 540.66842859 C79.587365 540.6893521 89.54795381 540.70818258 99.50854492 540.72607422 C100.41900936 540.7277124 101.3294738 540.72935058 102.26752807 540.73103841 C117.0255558 540.75732986 131.78358603 540.77597044 146.54162727 540.79266612 C161.6941851 540.81008501 176.8466938 540.83892699 191.99921238 540.87755549 C201.34519896 540.90095491 210.69110545 540.91495001 220.03712155 540.91688313 C226.44131182 540.91899205 232.84542241 540.93191749 239.24957691 540.95336245 C242.94461159 540.96539247 246.63948809 540.97254214 250.33454132 540.96665001 C254.34101129 540.96037564 258.34705547 540.97717343 262.35348511 540.9961853 C264.10372964 540.98789076 264.10372964 540.98789076 265.88933265 540.97942865 C274.42834621 541.04953028 280.36787951 542.33364781 286.77856445 548.38818359 C289.86345664 552.35447354 290.75958816 556.4258837 290.77856445 561.38818359 C289.84442979 567.30436978 287.27132383 571.50981866 282.77856445 575.38818359 C276.95636287 579.31276176 271.08878238 578.80731687 264.33102417 578.76913452 C262.43105735 578.77615448 262.43105735 578.77615448 260.49270737 578.78331625 C256.98346001 578.79583014 253.47445768 578.78965411 249.96520948 578.7803576 C246.17771216 578.77356859 242.39025691 578.78404788 238.60276794 578.79229736 C231.18397564 578.80564079 223.76527438 578.80275358 216.34647851 578.79405944 C210.31363112 578.78728264 204.28080924 578.78636617 198.24795914 578.78963089 C197.38909941 578.79009059 196.53023967 578.79055029 195.64535389 578.79102392 C193.90048486 578.79198311 192.15561584 578.79295575 190.41074683 578.79394169 C174.04479994 578.80249816 157.67890344 578.79265902 141.31296481 578.77654059 C127.28454565 578.76315153 113.25620101 578.76545335 99.2277832 578.77929688 C82.9294608 578.79537292 66.63118266 578.80165906 50.33285344 578.79246008 C48.59259042 578.79150447 46.85232739 578.79056136 45.11206436 578.78963089 C44.25588454 578.78916806 43.39970472 578.78870524 42.51758005 578.78822839 C36.49833105 578.78564349 30.47911021 578.78999898 24.45986557 578.79706955 C17.11477361 578.80550789 9.76977776 578.80315615 2.42469673 578.78722732 C-1.31957802 578.77937365 -5.06369288 578.77620281 -8.80796623 578.78617477 C-12.87611285 578.79684478 -16.94386015 578.78405512 -21.01199341 578.76913452 C-22.18303151 578.77582669 -23.35406962 578.78251885 -24.56059372 578.78941381 C-45.94224602 578.6378329 -63.33589288 569.27372626 -78.22143555 554.38818359 C-80.7686685 551.518133 -83.03934936 548.54307174 -85.22143555 545.38818359 C-86.00647461 544.26863281 -86.00647461 544.26863281 -86.80737305 543.12646484 C-93.87956752 532.26687688 -97.38300549 519.58883078 -97.35565662 506.6795969 C-97.35800885 505.919088 -97.36036108 505.1585791 -97.36278459 504.37502447 C-97.36944719 501.82394088 -97.3690172 499.27290855 -97.36860657 496.72181702 C-97.3719069 494.87529293 -97.37563283 493.02876956 -97.37974805 491.1822471 C-97.38975692 486.10545468 -97.39348305 481.02867408 -97.39613736 475.95187318 C-97.40004371 470.47719787 -97.40962183 465.00253189 -97.41835022 459.52786255 C-97.43810535 446.30511198 -97.44817968 433.08236066 -97.45707801 419.85959902 C-97.4614625 413.63082448 -97.4668289 407.40205078 -97.47206688 401.1732769 C-97.48907827 380.46404862 -97.50359688 359.75482079 -97.51081562 339.04558659 C-97.51129037 337.70672467 -97.51176626 336.36786276 -97.51224328 335.02900084 C-97.51247966 334.36506337 -97.51271603 333.7011259 -97.51295957 333.01706911 C-97.51416074 329.65338787 -97.5153762 326.28970663 -97.51660156 322.92602539 C-97.51684171 322.25849973 -97.51708186 321.59097406 -97.51732929 320.90322034 C-97.52521847 299.27082661 -97.54864289 277.63848778 -97.58115751 256.00611801 C-97.61549182 233.12117509 -97.635169 210.23625611 -97.63845986 187.35128587 C-97.64062368 174.88205976 -97.64935373 162.41291432 -97.67492104 149.94371223 C-97.69664681 139.32357757 -97.70466917 128.70354318 -97.69495425 118.08338881 C-97.69041504 112.66787283 -97.69227397 107.25256369 -97.7117157 101.83707619 C-97.72938693 96.87172827 -97.72831748 91.90673748 -97.71281841 86.94138556 C-97.71044835 85.15261102 -97.71473434 83.36381148 -97.72664706 81.57507504 C-97.81395136 67.59097757 -96.17164026 54.7274636 -89.53393555 42.13818359 C-89.19289795 41.47689453 -88.85186035 40.81560547 -88.50048828 40.13427734 C-79.01218829 22.39350313 -62.38899162 9.33438572 -43.22143555 3.38818359 C-28.961568 -0.3947782 -14.6492292 -0.03682649 0 0 Z M276.77856445 57.38818359 C276.7276479 64.77137287 276.69274013 72.15451646 276.66870117 79.5378418 C276.65867435 82.04697359 276.6450495 84.5560938 276.62768555 87.06518555 C276.60329127 90.68199535 276.59204784 94.29864997 276.58325195 97.91552734 C276.57292938 99.02838608 276.56260681 100.14124481 276.55197144 101.28782654 C276.55078519 109.61500611 276.75633318 118.00595971 282.0949707 124.81787109 C290.42368271 132.58618253 300.83117586 132.53670856 311.52075195 132.48583984 C312.64426056 132.4844249 313.76776917 132.48300995 314.92532349 132.48155212 C318.50143129 132.47597024 322.07747568 132.46342101 325.65356445 132.45068359 C328.08325105 132.44566626 330.51293863 132.44110376 332.94262695 132.43701172 C338.88796096 132.42600673 344.83325817 132.4092866 350.77856445 132.38818359 C349.13731681 128.18059909 346.02891405 125.37897059 342.87597656 122.27441406 C342.27256943 121.67232117 341.66916229 121.07022827 341.04747009 120.44989014 C339.05484137 118.46374495 337.05533759 116.48466789 335.0559082 114.50537109 C333.67059975 113.12633331 332.28580538 111.74677894 330.90150452 110.36672974 C327.25811752 106.73664237 323.60920472 103.11216485 319.9586792 99.48925781 C314.11052228 93.68423429 308.2690897 87.87246314 302.43084908 82.05746841 C300.38740624 80.02427385 298.3405983 77.99451184 296.29344177 75.96505737 C295.04609978 74.72454089 293.79886585 73.48391574 292.55175781 72.24316406 C291.97874939 71.67689301 291.40574097 71.11062195 290.81536865 70.52719116 C286.89219921 66.61545311 286.89219921 66.61545311 285.77856445 64.38818359 C285.11856445 64.38818359 284.45856445 64.38818359 283.77856445 64.38818359 C283.44856445 63.39818359 283.11856445 62.40818359 282.77856445 61.38818359 C280.82259262 59.99106085 278.82420044 58.65038452 276.77856445 57.38818359 Z " fill="#475055" transform="translate(311.221435546875,182.61181640625)"/>
<path d="M0 0 C5.62219846 4.66522851 11.16010796 9.51259405 16 15 C16 15.66 16 16.32 16 17 C16.66 17 17.32 17 18 17 C18 17.66 18 18.32 18 19 C18.5775 19.226875 19.155 19.45375 19.75 19.6875 C22.57914534 21.33783478 23.98274596 23.43258577 26 26 C26.825 26.66 27.65 27.32 28.5 28 C31 30 31 30 32.8125 32.3125 C35.31037446 35.3813172 38.09863321 37.78893895 41.09375 40.359375 C43.17573081 42.15124373 45.17355425 43.94524853 47 46 C47 46.66 47 47.32 47 48 C48.485 48.495 48.485 48.495 50 49 C50 49.66 50 50.32 50 51 C50.66 51 51.32 51 52 51 C53.2265625 52.28515625 53.2265625 52.28515625 54.625 54.0625 C56.87107743 56.78287048 59.1750324 59.10553905 61.875 61.375 C65.55389246 64.49436509 68.65961646 67.89632684 71.75 71.59375 C73.6436056 73.61885598 75.53875318 75.36160743 77.64013672 77.15820312 C81.93829134 80.89747022 85.98658226 84.84186229 90.0078125 88.875 C90.73692841 89.60315918 91.46604431 90.33131836 92.21725464 91.08154297 C93.74616223 92.6097749 95.27382719 94.13925095 96.80029297 95.66992188 C99.12225277 97.99724643 101.44951422 100.31917309 103.77734375 102.640625 C105.27115411 104.1350961 106.76465427 105.62987734 108.2578125 107.125 C108.94545685 107.81062012 109.6331012 108.49624023 110.34158325 109.20263672 C113.9817034 112.86029003 117.44541577 116.58516467 120.72775269 120.56860352 C122.29222285 122.32877787 124.10490543 123.6151232 126 125 C126 125.66 126 126.32 126 127 C126.87978516 127.36351562 126.87978516 127.36351562 127.77734375 127.734375 C133.37969632 130.9244668 137.70177709 138.12676366 140 144 C141.8003172 151.33975474 140.56761848 157.77367639 136.6875 164.1875 C135.8098693 165.47097149 134.91483234 166.74277428 134 168 C133.278125 169.010625 132.55625 170.02125 131.8125 171.0625 C126.32408969 177.35954756 118.33895873 182.71602126 110 184 C102.7263082 184.05079394 95.75124226 183.39238458 90.125 178.5 C88 176 88 176 88 174 C87.43448551 173.75924744 86.86897102 173.51849487 86.28631973 173.27044678 C83.52895247 171.73825148 81.65188287 169.90372614 79.41888428 167.67285156 C78.50465698 166.76426392 77.59042969 165.85567627 76.64849854 164.91955566 C75.64284366 163.91001239 74.63729294 162.90036535 73.63183594 161.890625 C72.56763422 160.82913377 71.50300758 159.76806839 70.43798828 158.70739746 C67.54932297 155.82784928 64.66701901 152.94201128 61.78608227 150.05473328 C58.7728349 147.03642509 55.75471407 144.02299651 52.73736572 141.00878906 C47.67319357 135.94825519 42.6132528 130.88351911 37.55566406 125.81640625 C31.70175346 119.95159963 25.84065664 114.09404875 19.97579741 108.24019241 C14.94447689 103.21793468 9.91704793 98.19180638 4.89287782 93.16239548 C1.89028632 90.15668023 -1.11365369 87.15234624 -4.12110138 84.15148926 C-6.9458675 81.33248174 -9.76573193 78.50866266 -12.58181763 75.6809845 C-13.61855924 74.64158882 -14.65702425 73.60390901 -15.69728851 72.56803894 C-17.1117375 71.15901699 -18.5194826 69.74327465 -19.92681885 68.32714844 C-20.71805271 67.53516052 -21.50928658 66.74317261 -22.32449722 65.92718506 C-24 64 -24 64 -24 62 C-24.58950439 61.73952881 -25.17900879 61.47905762 -25.78637695 61.21069336 C-28.14182503 59.92243186 -29.59114235 58.58522387 -31.41796875 56.62890625 C-32.33932617 55.64374023 -32.33932617 55.64374023 -33.27929688 54.63867188 C-34.22385742 53.6109668 -34.22385742 53.6109668 -35.1875 52.5625 C-35.82880859 51.88123047 -36.47011719 51.19996094 -37.13085938 50.49804688 C-41.87073747 45.3877876 -41.87073747 45.3877876 -43 42 C-42.46890625 41.55269531 -41.9378125 41.10539063 -41.390625 40.64453125 C-37.49526489 37.31072852 -34.18101204 34.03743836 -31 30 C-30.34 30 -29.68 30 -29 30 C-28.7525 29.4225 -28.505 28.845 -28.25 28.25 C-26.81700012 25.67060021 -25.21575324 23.93878408 -23 22 C-22.34 22 -21.68 22 -21 22 C-20.690625 21.20335937 -20.690625 21.20335937 -20.375 20.390625 C-18.42038808 16.99226564 -15.77876283 14.48944072 -13 11.75 C-12.4534375 11.19570313 -11.906875 10.64140625 -11.34375 10.0703125 C-7.2533867 6 -7.2533867 6 -5 6 C-4.67 5.01 -4.34 4.02 -4 3 C-1.9375 1.3125 -1.9375 1.3125 0 0 Z " fill="#475055" transform="translate(653,649)"/>
<path d="M0 0 C4.53962257 0.79642501 5.85925902 1.91769808 8.5625 5.625 C10.07653137 9.60721791 10.5625 13.35526311 10.5625 17.625 C11.2225 17.955 11.8825 18.285 12.5625 18.625 C12.82554254 20.53363668 13.07913978 22.44423371 13.27587891 24.36083984 C14.62114619 34.98776388 18.72855551 45.71602073 24.5625 54.625 C25.34753906 55.82382812 25.34753906 55.82382812 26.1484375 57.046875 C36.4407193 71.4464054 52.85874949 75.67675029 69.10986328 80.0390625 C75.9854173 81.93942453 81.44911447 83.4549217 85.5625 89.625 C85.48014342 92.83690645 84.93879438 94.22628809 82.7265625 96.5703125 C78.13226564 99.55376947 73.25975917 100.66182509 68 102.0625 C53.24468901 106.19724209 38.95690726 110.6064666 28.5625 122.625 C27.87981862 123.95020503 27.2117959 125.28312182 26.5625 126.625 C25.964375 127.16125 25.36625 127.6975 24.75 128.25 C17.20275275 136.44415416 14.63310358 148.562152 12.34375 159.171875 C12.02470703 160.64188965 12.02470703 160.64188965 11.69921875 162.14160156 C11.28148364 164.09893402 10.87735429 166.05923015 10.48828125 168.02246094 C9.4109934 173.12873305 8.50323195 176.91964896 4.5625 180.625 C1.07448362 181.81240983 -0.66907596 181.91092522 -4.125 180.625 C-7.19442391 177.9703631 -8.08493631 175.42505988 -9.4375 171.625 C-9.80875 170.655625 -10.18 169.68625 -10.5625 168.6875 C-11.4375 165.625 -11.4375 165.625 -11.859375 161.91015625 C-13.5030061 148.20227291 -19.48406732 130.95671842 -30.15234375 121.859375 C-30.57644531 121.45203125 -31.00054688 121.0446875 -31.4375 120.625 C-31.4375 119.965 -31.4375 119.305 -31.4375 118.625 C-31.99663086 118.36364258 -32.55576172 118.10228516 -33.13183594 117.83300781 C-35.6807163 116.49757155 -37.95574219 114.92491034 -40.328125 113.296875 C-46.61477903 109.2658975 -53.08292687 107.05436518 -60.1875 104.875 C-62.53728699 104.13282684 -64.88627199 103.38810886 -67.234375 102.640625 C-68.8575061 102.12483887 -68.8575061 102.12483887 -70.51342773 101.59863281 C-81.40545485 97.97189789 -81.40545485 97.97189789 -83.4375 94.625 C-83.875 91.1875 -83.875 91.1875 -83.4375 87.625 C-80.43580075 83.75419561 -77.29184707 82.61524281 -72.6875 81.1875 C-71.70656372 80.87510376 -71.70656372 80.87510376 -70.70581055 80.55639648 C-67.25515251 79.4638864 -63.7877199 78.43087007 -60.31640625 77.40625 C-43.86061613 72.51127293 -29.98523643 65.9962251 -20.94921875 50.578125 C-15.27383026 39.49131958 -12.76342829 27.38230432 -10.0234375 15.31079102 C-9.60771484 13.54626587 -9.60771484 13.54626587 -9.18359375 11.74609375 C-8.94310303 10.6883374 -8.7026123 9.63058105 -8.45483398 8.54077148 C-6.78744748 3.76189052 -5.09442155 0.92625846 0 0 Z " fill="#FCD054" transform="translate(675.4375,440.375)"/>
<path d="M0 0 C2.1408657 0.23298514 4.28133498 0.47067248 6.41876221 0.7333374 C10.5780366 1.16302386 14.72059514 1.14265055 18.8984375 1.1328125 C19.81404449 1.13376923 20.72965149 1.13472595 21.67300415 1.13571167 C23.59743316 1.13638788 25.52186452 1.13457289 27.44628906 1.13037109 C30.3600793 1.12502736 33.27371455 1.13032887 36.1875 1.13671875 C48.60275089 1.17399409 48.60275089 1.17399409 60.96337891 0.11669922 C63.19178422 -0.01098931 64.86648461 0.38392567 67 1 C68.4158775 1.09581126 69.83268056 1.1786242 71.25 1.25 C77.01311517 1.87663196 81.62775307 4.1203939 85.3515625 8.640625 C88.23681312 13.2487231 89.65526113 17.88482414 88.5234375 23.265625 C86.94584981 28.50113581 85.10687204 33.03610227 80.30568171 36.07100254 C75.5073479 38.61664114 71.44789929 39.57618406 65.99255371 39.50120544 C65.22773855 39.50673984 64.46292338 39.51227424 63.674932 39.51797634 C61.13386035 39.53149742 58.5937856 39.51666099 56.05273438 39.50170898 C54.22218918 39.50549528 52.39164685 39.51099788 50.56111145 39.51808167 C45.60447207 39.53201298 40.64818071 39.52088277 35.69156075 39.50437045 C30.49696727 39.49049159 25.30239342 39.49698326 20.10778809 39.50050354 C11.38544119 39.50320342 2.66323208 39.48974916 -6.05908203 39.46655273 C-16.1338672 39.43994445 -26.20842204 39.43819676 -36.2832303 39.4499411 C-45.98700174 39.46073172 -55.69069011 39.45452171 -65.39445496 39.44038582 C-69.51867137 39.43463718 -73.64282678 39.43469988 -77.76704407 39.43945122 C-82.62626759 39.44423426 -87.48523989 39.43406437 -92.34441566 39.41249657 C-94.12454188 39.4069466 -95.90469233 39.40644691 -97.68482018 39.41144943 C-100.1210073 39.41743551 -102.55643483 39.40483428 -104.99255371 39.38768005 C-105.69140135 39.3936901 -106.39024899 39.39970014 -107.11027384 39.40589231 C-112.90894069 39.33200771 -118.41259748 38.06292904 -123.0234375 34.38671875 C-127.00891263 29.37607805 -129.28472399 25.25892958 -129 18.6875 C-128.22746691 13.31612289 -125.73814546 8.90271791 -122 5 C-117.59403651 2.40779404 -114.15830139 1.55854232 -109.07397461 1.31640625 C-108.38952994 1.28317764 -107.70508528 1.24994904 -106.99989986 1.2157135 C-98.00780794 0.83361934 -89.00257073 0.88877214 -80.00448799 0.92483521 C-76.74744645 0.93777395 -73.49044629 0.9441566 -70.23338318 0.94897461 C-63.34306982 0.96029533 -56.45279165 0.97959961 -49.5625 1 C-41.52096253 1.02361155 -33.47944341 1.04394051 -25.43787956 1.05593872 C-22.22423119 1.06243366 -19.01064125 1.0749291 -15.79701233 1.08764648 C-13.84717866 1.09127519 -11.89734446 1.09462739 -9.94750977 1.09765625 C-8.60202309 1.10540573 -8.60202309 1.10540573 -7.22935486 1.11331177 C-5.15255975 1.11349224 -3.07585466 1.06249311 -1 1 C-0.67 0.67 -0.34 0.34 0 0 Z " fill="#464F55" transform="translate(441,356)"/>
<path d="M0 0 C0.53367187 0.14179688 1.06734375 0.28359375 1.6171875 0.4296875 C4.81805655 1.19579714 7.83723446 1.13186381 11.125 1.125 C12.36507812 1.12757813 13.60515625 1.13015625 14.8828125 1.1328125 C17.90723573 1.21668811 17.90723573 1.21668811 20 0 C20 0.66 20 1.32 20 2 C21.71629105 1.75464508 21.71629105 1.75464508 23.46725464 1.5043335 C27.8409836 0.96062182 32.12186149 0.88216554 36.52392578 0.93066406 C37.33475616 0.93545273 38.14558655 0.94024139 38.98098755 0.94517517 C41.63584672 0.96272321 44.29053493 0.98850189 46.9453125 1.015625 C48.80280513 1.03233835 50.66029822 1.04900013 52.51779175 1.06561279 C56.39944737 1.10196445 60.28101985 1.14317142 64.16259766 1.18701172 C69.13001247 1.24212372 74.09737934 1.27859749 79.06498909 1.31064224 C82.89643956 1.33852698 86.72766798 1.37957884 90.55895615 1.42424774 C92.39048759 1.44340123 94.2220764 1.45771854 96.05368423 1.46704865 C98.61444768 1.48141216 101.17434692 1.51433943 103.73486328 1.55175781 C104.86184631 1.55196175 104.86184631 1.55196175 106.01159668 1.5521698 C111.55272853 1.66231341 115.57926121 2.95685508 119.828125 6.54296875 C123.41848181 10.69555176 125.68019814 14.42478754 126 20 C125.48709523 25.44704869 123.5322476 29.79948935 120 34 C110.32254377 41.30746695 96.41234104 39.14933879 84.82958984 39.14526367 C83.11845324 39.1482611 81.40731731 39.15166496 79.69618225 39.15544128 C75.07860436 39.16422199 70.46104504 39.16661677 65.84345961 39.16725707 C62.95395308 39.16797047 60.0644512 39.17011018 57.17494583 39.17275429 C47.08212232 39.18198515 36.98931197 39.18609165 26.89648438 39.18530273 C17.50618651 39.18470121 8.11594595 39.19527342 -1.27433741 39.2110464 C-9.35616437 39.22413527 -17.43797261 39.22948613 -25.51981008 39.22884732 C-30.33834758 39.22859292 -35.15683399 39.2314132 -39.97536087 39.24202538 C-44.50460778 39.25173011 -49.03375495 39.25176928 -53.56300545 39.24450874 C-55.22016992 39.24346615 -56.87734069 39.24580639 -58.5344944 39.2518692 C-80.48997494 39.3269648 -80.48997494 39.3269648 -85.875 34.0625 C-86.40867187 33.55847656 -86.94234375 33.05445313 -87.4921875 32.53515625 C-87.98976563 32.02855469 -88.48734375 31.52195312 -89 31 C-89.54914063 30.59394531 -90.09828125 30.18789063 -90.6640625 29.76953125 C-92.82795746 26.90331951 -92.4723321 24.14574083 -92.5 20.625 C-92.5309375 19.31789063 -92.561875 18.01078125 -92.59375 16.6640625 C-91.86340549 12.15706812 -90.47114149 10.85619549 -87 8 C-86.42894531 7.48953125 -85.85789062 6.9790625 -85.26953125 6.453125 C-81.04009165 2.96071911 -79.09234562 1.88031013 -73.65844727 1.79467773 C-72.5387001 1.77473251 -71.41895294 1.75478729 -70.26527405 1.73423767 C-69.04464767 1.71752518 -67.8240213 1.70081268 -66.56640625 1.68359375 C-65.30473129 1.66281265 -64.04305634 1.64203156 -62.7431488 1.62062073 C-60.0572072 1.57726724 -57.37131245 1.53570952 -54.68530273 1.49731445 C-50.63840665 1.43942989 -46.59168297 1.37331416 -42.54492188 1.30664062 C-17.95751392 0.91561673 -17.95751392 0.91561673 -6.28749084 1.0655365 C-4.52491408 1.07953219 -2.76204246 1.04559689 -1 1 C-0.67 0.67 -0.34 0.34 0 0 Z " fill="#474F55" transform="translate(404,452)"/>
<path d="M0 0 C5.32871713 2.75276125 9.20867965 6.86157866 13.34375 11.1328125 C14.11847656 11.90882813 14.89320313 12.68484375 15.69140625 13.484375 C21.34375 19.22643849 21.34375 19.22643849 21.34375 21.5078125 C21.87766357 21.71937988 22.41157715 21.93094727 22.96166992 22.14892578 C26.25921196 24.03004898 28.7791607 26.59818235 31.45703125 29.25 C32.0308403 29.81478058 32.60464935 30.37956116 33.19584656 30.9614563 C34.40288623 32.15402273 35.60716323 33.34939104 36.80883789 34.54736328 C38.65519566 36.38176499 40.5193865 38.1966889 42.38476562 40.01171875 C43.55583154 41.17332695 44.72579281 42.33605007 45.89453125 43.5 C46.45586258 44.04179901 47.01719391 44.58359802 47.59553528 45.14181519 C49.1340332 46.69873047 49.1340332 46.69873047 51.34375 49.5078125 C51.06435874 53.0328809 49.46678676 54.75562201 47.02075195 57.18725586 C46.31944656 57.89156235 45.61814117 58.59586884 44.89558411 59.32151794 C44.13211166 60.07264359 43.36863922 60.82376923 42.58203125 61.59765625 C41.79861862 62.37919571 41.01520599 63.16073517 40.20805359 63.96595764 C38.54787599 65.61941049 36.88410342 67.26926036 35.21704102 68.91577148 C32.67668178 71.42513005 30.14700086 73.9448538 27.61914062 76.46679688 C26.00322213 78.0735384 24.38670472 79.67967785 22.76953125 81.28515625 C22.01617996 82.03425766 21.26282867 82.78335907 20.48664856 83.55516052 C9.38525561 94.5078125 9.38525561 94.5078125 6.34375 94.5078125 C4.61552225 92.88359271 2.98496906 91.21801087 1.34375 89.5078125 C-0.08116937 88.08222249 -1.50940653 86.65994519 -2.93994141 85.23999023 C-6.94483371 81.25104109 -10.94756387 77.25993361 -14.94867897 73.2671957 C-17.36030351 70.86080614 -19.77286412 68.45537014 -22.1875 66.05200195 C-24.98454719 63.26791525 -27.77752852 60.47976972 -30.5703125 57.69140625 C-31.86879623 56.40066444 -31.86879623 56.40066444 -33.19351196 55.08384705 C-33.99799774 54.2794368 -34.80248352 53.47502655 -35.63134766 52.64624023 C-36.69127426 51.58964455 -36.69127426 51.58964455 -37.77261353 50.51170349 C-42.65625 45.31628746 -42.65625 45.31628746 -42.65625 41.5078125 C-43.64625 41.5078125 -44.63625 41.5078125 -45.65625 41.5078125 C-45.32625 40.8478125 -44.99625 40.1878125 -44.65625 39.5078125 C-44.60453951 38.17483091 -44.56458919 36.84138004 -44.53125 35.5078125 C-43.45371382 25.56212242 -34.48572304 17.83696976 -27.71875 11.1328125 C-26.95884766 10.35292969 -26.19894531 9.57304688 -25.41601562 8.76953125 C-18.07255315 1.43233988 -10.63579734 -4.34067797 0 0 Z " fill="#485055" transform="translate(590.65625,586.4921875)"/>
<path d="M0 0 C0.91245483 -0.00426498 1.82490967 -0.00852997 2.76501465 -0.01292419 C4.24804329 -0.01224442 4.24804329 -0.01224442 5.7610321 -0.0115509 C6.81205109 -0.01490952 7.86307007 -0.01826813 8.94593811 -0.02172852 C12.41906416 -0.0312242 15.89214193 -0.03318098 19.36528015 -0.03425598 C21.78277608 -0.03746966 24.20027181 -0.04083381 26.61776733 -0.04434204 C31.6858719 -0.05032995 36.75395941 -0.0521823 41.82206726 -0.05158997 C48.30842436 -0.05148839 54.79467186 -0.06513706 61.281003 -0.08236217 C66.27478536 -0.09349447 71.26854133 -0.09550879 76.26233482 -0.09498024 C78.65327011 -0.09615863 81.04420612 -0.1005725 83.43512917 -0.10831261 C86.7834243 -0.11813659 90.13148296 -0.11522474 93.4797821 -0.10920715 C94.46239517 -0.11482666 95.44500824 -0.12044617 96.45739746 -0.12623596 C104.66032513 -0.08887409 111.66582674 0.6044884 117.8379364 6.43840027 C121.77594648 10.95981924 122.94191834 16.01560367 122.73246765 21.86027527 C121.75330875 27.18616759 118.56646332 30.97117438 114.6894989 34.57121277 C110.65539786 37.22522661 107.41038436 37.28256514 102.67973328 37.35490417 C101.66960238 37.37210353 101.66960238 37.37210353 100.63906479 37.38965034 C98.39550607 37.42639263 96.15191672 37.45600815 93.9082489 37.48527527 C92.32424044 37.50905504 90.74023576 37.53308741 89.15623474 37.55735779 C84.04242378 37.63319785 78.92849804 37.69705589 73.8144989 37.75871277 C72.95162766 37.76931984 72.08875641 37.77992691 71.19973755 37.79085541 C28.10218927 38.31664394 28.10218927 38.31664394 10.22099304 38.04649353 C8.46702013 38.02154846 6.71291488 38.00450392 4.95878601 37.99583435 C-11.95950104 37.88827143 -11.95950104 37.88827143 -17.6855011 32.13371277 C-21.13582009 27.87196907 -23.12602601 23.03517937 -22.8105011 17.50871277 C-21.77052492 12.06809667 -19.3682152 7.25293441 -14.9745636 3.78215027 C-10.14844173 0.85275752 -5.55143298 0.01179423 0 0 Z " fill="#475056" transform="translate(334.6855010986328,547.8662872314453)"/>
<path d="M0 0 C1.2065625 0.0309375 1.2065625 0.0309375 2.4375 0.0625 C5.12173171 4.79186064 6.42937751 9.4861228 7.69140625 14.76953125 C7.93761719 15.52621094 8.18382812 16.28289062 8.4375 17.0625 C9.0975 17.3925 9.7575 17.7225 10.4375 18.0625 C11.118125 19.2690625 11.118125 19.2690625 11.8125 20.5 C13.54167816 23.22678095 14.49776016 23.92453619 17.4375 25.0625 C18.0975 25.3925 18.7575 25.7225 19.4375 26.0625 C20.10523438 26.34867187 20.77296875 26.63484375 21.4609375 26.9296875 C29.19806338 30.24559859 29.19806338 30.24559859 32.4375 33.0625 C32.2265625 35.43359375 32.2265625 35.43359375 31.4375 38.0625 C29.3984375 39.28515625 29.3984375 39.28515625 26.8125 40.125 C19.60931323 42.70417244 13.77904872 45.42804624 9.4375 52.0625 C8.08482717 55.11776356 7.09086954 58.24172056 6.125 61.4375 C5.86138672 62.26894531 5.59777344 63.10039063 5.32617188 63.95703125 C4.68411126 65.98827755 4.05903806 68.02488036 3.4375 70.0625 C1.125 70.75 1.125 70.75 -1.5625 71.0625 C-4.40086942 69.44057462 -4.70622398 67.62894063 -5.73828125 64.515625 C-6.11920383 63.1151302 -6.49801758 61.71406054 -6.875 60.3125 C-9.34826622 51.46851172 -9.34826622 51.46851172 -15.5625 45.0625 C-19.00182884 43.38906312 -22.50800431 41.88764223 -26.08911133 40.54467773 C-28.17578125 39.73828125 -28.17578125 39.73828125 -31.5625 38.0625 C-32.37451172 36.09106445 -32.37451172 36.09106445 -32.5625 34.0625 C-29.9429519 30.58251639 -27.34913286 29.40506422 -23.25 28.1875 C-17.09847541 26.05497148 -12.4722485 23.69040412 -9.35546875 17.76953125 C-8.30296398 15.22696354 -7.40548686 12.68164056 -6.5625 10.0625 C-6.27503906 9.20140625 -5.98757813 8.3403125 -5.69140625 7.453125 C-5.17403218 5.8985273 -4.6674544 4.34026008 -4.17578125 2.77734375 C-3.20405097 0.0602126 -3.00482723 0.07328847 0 0 Z " fill="#FC944F" transform="translate(781.5625,454.9375)"/>
<path d="M0 0 C0.30292969 1.07378906 0.60585938 2.14757812 0.91796875 3.25390625 C3.99643961 15.49974041 3.99643961 15.49974041 12.29296875 24.41015625 C14.82492579 25.72401596 17.37423441 26.88690372 20 28 C20.72703125 28.32097656 21.4540625 28.64195312 22.203125 28.97265625 C23.79377898 29.66775911 25.39557479 30.33730263 27 31 C26.67 33.31 26.34 35.62 26 38 C24.89591797 38.39832031 24.89591797 38.39832031 23.76953125 38.8046875 C22.79371094 39.15789063 21.81789063 39.51109375 20.8125 39.875 C19.84957031 40.22304688 18.88664063 40.57109375 17.89453125 40.9296875 C16.93933594 41.28289063 15.98414063 41.63609375 15 42 C14.07703125 42.33902344 13.1540625 42.67804687 12.203125 43.02734375 C9.37619058 44.27540522 9.14750548 45.16948647 8 48 C7.0409375 49.546875 7.0409375 49.546875 6.0625 51.125 C3.89941341 54.8262815 2.84396083 58.62415668 1.80859375 62.765625 C0.90491772 65.26273945 0.19261087 66.49354736 -2 68 C-4.0012207 67.80810547 -4.0012207 67.80810547 -6 67 C-6.96972656 65.34521484 -6.96972656 65.34521484 -7.640625 63.2109375 C-7.90190186 62.43709717 -8.16317871 61.66325684 -8.43237305 60.8659668 C-8.70218994 60.04394775 -8.97200684 59.22192871 -9.25 58.375 C-11.83192782 51.23345307 -14.00196931 45.73384859 -21 42 C-24.15799248 40.62525203 -27.30158825 39.35927814 -30.55859375 38.23828125 C-33 37 -33 37 -33.9296875 34.98046875 C-34 33 -34 33 -32.6875 31 C-30.09498318 29.07068516 -28.19914979 28.29673194 -25.1875 27.25 C-18.9197413 24.82941184 -15.01240027 21.3772079 -12.171875 15.19873047 C-11.05543484 12.52414535 -10.00079832 9.83884378 -9.04003906 7.10424805 C-7.13499977 1.76152846 -5.9752451 0 0 0 Z " fill="#FC934F" transform="translate(767,574)"/>
<path d="M0 0 C39.80629446 0.08171922 79.61255223 0.17386567 119.41878928 0.28005161 C124.11529292 0.2925709 128.81179678 0.30500361 133.50830078 0.31738281 C134.44331396 0.31984881 135.37832714 0.3223148 136.34167406 0.32485552 C151.49326679 0.36460956 166.644867 0.39734518 181.79648152 0.42749982 C197.3364539 0.4585831 212.87639445 0.49717906 228.41633105 0.54279006 C238.00995428 0.57071011 247.60355413 0.59272786 257.19720712 0.60726251 C263.77054419 0.6177819 270.34383607 0.63558011 276.91713914 0.65916704 C280.71299699 0.67257071 284.50879136 0.68270292 288.30467415 0.68421364 C292.41529632 0.68593324 296.52571104 0.70294821 300.6362915 0.7215271 C301.84250695 0.71959237 303.04872241 0.71765763 304.29148984 0.71566427 C305.38975685 0.72312976 306.48802386 0.73059525 307.61957169 0.73828697 C308.56887251 0.74056529 309.51817334 0.74284362 310.49624085 0.74519098 C313.10998424 1.01119316 314.75430805 1.67227975 317 3 C277.77147147 3.19621174 238.54289933 3.37648399 199.31420112 3.53537826 C194.68293699 3.55415067 190.05167341 3.57305506 185.42041016 3.59204102 C184.03740793 3.59770733 184.03740793 3.59770733 182.62646627 3.60348812 C167.6973819 3.66496903 152.76836737 3.73714098 137.8393513 3.8132638 C122.52090306 3.89113435 107.2024361 3.95751621 91.88389111 4.01323253 C82.43146577 4.04797484 72.97916908 4.09167861 63.52684051 4.14684484 C57.04509797 4.18381554 50.56337085 4.20962699 44.08154553 4.22667392 C40.34181913 4.23683847 36.60228276 4.25191251 32.8626461 4.28024101 C28.80599377 4.31084222 24.74963582 4.3179383 20.69287109 4.32279968 C19.5138708 4.33542916 18.33487051 4.34805863 17.12014294 4.36107081 C10.68306659 4.34639834 5.86388837 3.70606566 0 1 C0 0.67 0 0.34 0 0 Z " fill="#595F63" transform="translate(273,723)"/>
<path d="M0 0 C4 0 4 0 6.46427441 2.21595669 C7.30106385 3.13469098 8.1378533 4.05342527 9 5 C10.52317041 6.51560091 12.0470625 8.03047681 13.5716095 9.54469299 C14.90242805 10.86684059 14.90242805 10.86684059 16.26013184 12.21569824 C16.73203949 12.68450409 17.20394714 13.15330994 17.69015503 13.63632202 C28.62285039 24.49782837 39.5436992 35.37118526 50.45821095 46.25096226 C56.76107016 52.53321873 63.06763674 58.81166741 69.38305664 65.08129883 C74.90733766 70.56554899 80.42440699 76.05693803 85.93315047 81.55679649 C88.84238244 84.46084641 91.75494316 87.36135833 94.67621803 90.25329781 C97.42899537 92.97865014 100.17193669 95.71354566 102.90805244 98.45562172 C103.90580637 99.45228791 104.90691382 100.44561183 105.91185379 101.43503189 C112.43998148 107.86736252 118.94399333 114.67840024 123 123 C122.70484638 125.3476038 122.70484638 125.3476038 122 127 C120.91719408 125.37579112 119.8416587 123.74613477 118.80859375 122.08984375 C112.23497647 111.7705756 103.45307545 103.30427792 94.83032227 94.70092773 C93.84682509 93.71607131 92.86353984 92.73100322 91.88044739 91.7457428 C89.24274801 89.10353607 86.6019582 86.46443959 83.96040845 83.82608294 C81.1865297 81.05475704 78.41511532 78.28096832 75.64329529 75.50758362 C70.99942375 70.8619013 66.35346624 66.21831296 61.70629883 61.57592773 C56.33231806 56.20741319 50.96198369 50.83527116 45.59347874 45.46128124 C40.97263715 40.8359079 36.34985773 36.21247809 31.72543949 31.59068066 C28.96791078 28.83471108 26.21106269 26.07806979 23.45596504 23.31966972 C20.87346786 20.73429207 18.2885524 18.15135727 15.70171928 15.57031822 C14.29781054 14.1683687 12.89637149 12.76394741 11.49499512 11.35946655 C10.66383682 10.53112808 9.83267853 9.70278961 8.97633362 8.84934998 C8.25243218 8.12582557 7.52853075 7.40230116 6.78269291 6.65685177 C5.08982052 4.92768923 5.08982052 4.92768923 3 4 C3 3.34 3 2.68 3 2 C2.01 1.67 1.02 1.34 0 1 C0 0.67 0 0.34 0 0 Z " fill="#444A4D" transform="translate(590,196)"/>
<path d="M0 0 C10.93496471 -0.02312297 21.86992366 -0.04091485 32.8049078 -0.05181217 C37.88191018 -0.0570411 42.95889589 -0.06413892 48.03588867 -0.07543945 C52.93120552 -0.08626799 57.82650629 -0.09227676 62.72183418 -0.09487724 C64.59382951 -0.09673155 66.46582391 -0.10035228 68.33781242 -0.10573006 C70.95040699 -0.11294004 73.56293427 -0.11399096 76.17553711 -0.11352539 C76.95740387 -0.11712067 77.73927063 -0.12071594 78.54483032 -0.12442017 C83.88594784 -0.11405216 83.88594784 -0.11405216 85 1 C85.12290718 2.65644366 85.17783908 4.31798993 85.20532227 5.97875977 C85.2352401 7.57029625 85.2352401 7.57029625 85.26576233 9.19398499 C85.28247482 10.348134 85.29918732 11.50228302 85.31640625 12.69140625 C85.33718735 13.86638168 85.35796844 15.04135712 85.37937927 16.25193787 C85.44500124 20.02206324 85.5038183 23.79226082 85.5625 27.5625 C85.6056732 30.11133573 85.64928708 32.66016403 85.69335938 35.20898438 C85.80069545 41.47257892 85.9024379 47.73624601 86 54 C84.515 53.505 84.515 53.505 83 53 C83 37.16 83 21.32 83 5 C81.35 5 79.7 5 78 5 C78 4.67 78 4.34 78 4 C52.59 4 27.18 4 1 4 C0.67 2.68 0.34 1.36 0 0 Z " fill="#44494C" transform="translate(599,347)"/>
<path d="M0 0 C2.1408657 0.23298514 4.28133498 0.47067248 6.41876221 0.7333374 C10.5780366 1.16302386 14.72059514 1.14265055 18.8984375 1.1328125 C19.81404449 1.13376923 20.72965149 1.13472595 21.67300415 1.13571167 C23.59743316 1.13638788 25.52186452 1.13457289 27.44628906 1.13037109 C30.3600793 1.12502736 33.27371455 1.13032887 36.1875 1.13671875 C48.60275089 1.17399409 48.60275089 1.17399409 60.96337891 0.11669922 C63.19572249 -0.01121498 64.86385569 0.37642411 67 1 C68.58025005 1.21192095 70.16398461 1.39923371 71.75 1.5625 C72.94882812 1.68818359 72.94882812 1.68818359 74.171875 1.81640625 C74.77515625 1.87699219 75.3784375 1.93757813 76 2 C76 2.33 76 2.66 76 3 C12.64 3 -50.72 3 -116 3 C-116 2.67 -116 2.34 -116 2 C-103.98829328 1.03120497 -92.05014471 0.87655788 -80.00448799 0.92483521 C-76.74744645 0.93777395 -73.49044629 0.9441566 -70.23338318 0.94897461 C-63.34306982 0.96029533 -56.45279165 0.97959961 -49.5625 1 C-41.52096253 1.02361155 -33.47944341 1.04394051 -25.43787956 1.05593872 C-22.22423119 1.06243366 -19.01064125 1.0749291 -15.79701233 1.08764648 C-13.84717866 1.09127519 -11.89734446 1.09462739 -9.94750977 1.09765625 C-8.60202309 1.10540573 -8.60202309 1.10540573 -7.22935486 1.11331177 C-5.15255975 1.11349224 -3.07585466 1.06249311 -1 1 C-0.67 0.67 -0.34 0.34 0 0 Z " fill="#5B6165" transform="translate(441,356)"/>
<path d="M0 0 C-2.80322006 2.80322006 -4.59098309 2.2819041 -8.52124023 2.3347168 C-9.19449215 2.34634322 -9.86774406 2.35796965 -10.56139755 2.36994839 C-12.81043659 2.40610361 -15.05936907 2.42785263 -17.30859375 2.44921875 C-18.89440334 2.47090982 -20.48020362 2.49329217 -22.06599426 2.5163269 C-26.31306615 2.57486809 -30.56017831 2.619733 -34.80744934 2.6609993 C-37.4267288 2.68739147 -40.04593743 2.71757928 -42.66516113 2.74899292 C-68.79465992 3.05925061 -94.88381495 3.02576039 -121 2 C-121 1.34 -121 0.68 -121 0 C-105.51892415 -0.15382383 -90.03780101 -0.30185922 -74.55660439 -0.4429636 C-67.36876157 -0.50861331 -60.18094609 -0.57617226 -52.99316406 -0.64819336 C-46.72984078 -0.71094664 -40.46649584 -0.77015082 -34.20309865 -0.82505554 C-30.88529041 -0.85426428 -27.56753066 -0.88580481 -24.24977493 -0.92053413 C-20.55016802 -0.95895966 -16.85055749 -0.99111195 -13.15087891 -1.02172852 C-12.04533157 -1.03467453 -10.93978424 -1.04762054 -9.80073547 -1.06095886 C-8.79670181 -1.06799835 -7.79266815 -1.07503784 -6.75820923 -1.08229065 C-5.88250589 -1.09058679 -5.00680256 -1.09888292 -4.10456276 -1.10743046 C-2 -1 -2 -1 0 0 Z " fill="#353B3E" transform="translate(446,583)"/>
<path d="M0 0 C0.53367187 0.14179688 1.06734375 0.28359375 1.6171875 0.4296875 C4.81805655 1.19579714 7.83723446 1.13186381 11.125 1.125 C12.36507812 1.12757813 13.60515625 1.13015625 14.8828125 1.1328125 C17.90723573 1.21668811 17.90723573 1.21668811 20 0 C20 0.66 20 1.32 20 2 C21.71334534 1.75317223 21.71334534 1.75317223 23.46130371 1.50135803 C27.8722785 0.95311531 32.18051516 0.90233317 36.61914062 0.97827148 C37.43960876 0.98787903 38.2600769 0.99748657 39.10540771 1.00738525 C41.78911713 1.04009082 44.47264888 1.08052927 47.15625 1.12109375 C49.02811069 1.14542275 50.89997777 1.16926487 52.77185059 1.19264221 C57.67748335 1.25520669 62.58300179 1.32435033 67.48852539 1.39489746 C72.50271436 1.46583187 77.51698383 1.53049813 82.53125 1.59570312 C92.35425515 1.72435877 102.17715087 1.85996999 112 2 C112 2.33 112 2.66 112 3 C48.97 3 -14.06 3 -79 3 C-79 2.67 -79 2.34 -79 2 C-71.63553355 1.86762231 -64.27103608 1.73712588 -56.906497 1.60884857 C-53.48460479 1.54919 -50.06272512 1.48895067 -46.64086914 1.42724609 C-42.68117809 1.3561617 -38.72146183 1.28687196 -34.76171875 1.21875 C-33.48054169 1.19651367 -32.19936462 1.17427734 -30.87936401 1.15136719 C-22.67890743 1.01804256 -14.48231712 0.95436016 -6.28117371 1.06237793 C-4.52072185 1.07717304 -2.75995436 1.04438793 -1 1 C-0.67 0.67 -0.34 0.34 0 0 Z " fill="#606669" transform="translate(404,452)"/>
<path d="M0 0 C0.66 0 1.32 0 2 0 C3.21240234 1.23364258 3.21240234 1.23364258 4.7109375 3.08203125 C10.60099535 10.00765338 17.18015595 16.28474278 23.625 22.6875 C24.94815093 24.00562426 26.27106941 25.3239819 27.59375 26.64257812 C30.02151682 29.06223573 32.45060748 31.4805463 34.88134766 33.8972168 C37.59255002 36.59317491 40.29775609 39.29505923 43 42 C43.598125 42.598125 44.19625 43.19625 44.8125 43.8125 C45.204375 44.204375 45.59625 44.59625 46 45 C45.505 45.99 45.505 45.99 45 47 C39.13913439 42.00159708 33.58575012 36.75865855 28.125 31.328125 C27.31506592 30.52389099 26.50513184 29.71965698 25.6706543 28.89105225 C23.97518131 27.20496032 22.28110684 25.51746104 20.58837891 23.82861328 C17.98655012 21.23660087 15.37425255 18.65543542 12.76171875 16.07421875 C11.1113242 14.43034481 9.46156147 12.78583623 7.8125 11.140625 C7.0282666 10.3687384 6.2440332 9.59685181 5.43603516 8.80157471 C4.72108887 8.08362732 4.00614258 7.36567993 3.26953125 6.62597656 C2.63635986 5.99645081 2.00318848 5.36692505 1.35083008 4.71832275 C0 3 0 3 0 0 Z " fill="#44494D" transform="translate(618,267)"/>
<path d="M0 0 C2.9217832 0.3130482 3.85149204 0.81966891 5.75 3.125 C6.4925 4.07375 7.235 5.0225 8 6 C9.20678841 7.10062098 10.43648504 8.17637792 11.68164062 9.23339844 C15.72289949 12.72502966 19.55519128 16.3782499 23.34375 20.140625 C23.99831177 20.78948669 24.65287354 21.43834839 25.32727051 22.10687256 C26.69318251 23.46342564 28.05771461 24.82136949 29.42089844 26.18066406 C31.5157583 28.26568428 33.62104592 30.33981113 35.7265625 32.4140625 C37.05794552 33.73892658 38.38869821 35.06442447 39.71875 36.390625 C40.34986694 37.00939514 40.98098389 37.62816528 41.63122559 38.26568604 C46 42.6572703 46 42.6572703 46 46 C45.34 46 44.68 46 44 46 C42.55523682 44.53646851 42.55523682 44.53646851 40.87597656 42.50927734 C37.10622296 38.07887412 33.10209651 33.95734531 28.984375 29.8515625 C28.24672913 29.1129599 27.50908325 28.3743573 26.74908447 27.6133728 C25.20406774 26.06768068 23.657808 24.5232301 22.11035156 22.97998047 C19.73906663 20.61409151 17.37321745 18.24285994 15.0078125 15.87109375 C13.50032086 14.36426226 11.99251941 12.85774065 10.484375 11.3515625 C9.77810974 10.64327301 9.07184448 9.93498352 8.34417725 9.20523071 C7.68629211 8.55049774 7.02840698 7.89576477 6.35058594 7.22119141 C5.77435486 6.64575592 5.19812378 6.07032043 4.60443115 5.47744751 C2.86040823 3.7945748 2.86040823 3.7945748 0 2 C0 1.34 0 0.68 0 0 Z " fill="#454A4C" transform="translate(719,717)"/>
<path d="M0 0 C1.28237549 -0.00467285 2.56475098 -0.0093457 3.88598633 -0.01416016 C5.08892334 -0.01206543 6.29186035 -0.0099707 7.53125 -0.0078125 C8.60955078 -0.00668457 9.68785156 -0.00555664 10.79882812 -0.00439453 C13.5 0.125 13.5 0.125 16.5 1.125 C16.5 1.785 16.5 2.445 16.5 3.125 C-0.99 3.125 -18.48 3.125 -36.5 3.125 C-33.61147781 0.23647781 -30.57646057 0.65423411 -26.6875 0.5 C-25.87667969 0.46277832 -25.06585937 0.42555664 -24.23046875 0.38720703 C-16.15671544 0.06514739 -8.07929532 0.02101247 0 0 Z " fill="#2E3539" transform="translate(643.5,313.875)"/>
<path d="M0 0 C0.99 0.33 1.98 0.66 3 1 C3 1.66 3 2.32 3 3 C3.66 3 4.32 3 5 3 C6.34643555 4.36547852 6.34643555 4.36547852 7.94921875 6.31640625 C12.62049083 11.808389 17.70638795 16.85253128 22.8125 21.9375 C23.77555913 22.90412902 24.73845081 23.8709249 25.70117188 24.83789062 C27.06532227 26.20010742 27.06532227 26.20010742 28.45703125 27.58984375 C29.28178955 28.41347412 30.10654785 29.23710449 30.95629883 30.08569336 C32.85455934 32.0460552 32.85455934 32.0460552 35 33 C35 33.66 35 34.32 35 35 C31.76942381 34.41730423 30.12451807 33.50208969 27.80786133 31.19604492 C27.21076859 30.60840866 26.61367584 30.0207724 25.99848938 29.41532898 C25.3660582 28.7768251 24.73362701 28.13832123 24.08203125 27.48046875 C23.42418137 26.82548904 22.76633148 26.17050934 22.08854675 25.49568176 C20.70060226 24.10977747 19.31643401 22.72008252 17.93579102 21.3269043 C15.82044431 19.19550459 13.68959473 17.08055956 11.55664062 14.96679688 C10.20997454 13.61814836 8.86423938 12.26856951 7.51953125 10.91796875 C6.88102737 10.28553757 6.2425235 9.65310638 5.58467102 9.00151062 C4.99703476 8.40441788 4.4093985 7.80732513 3.80395508 7.19213867 C3.28529373 6.67109055 2.76663239 6.15004242 2.23225403 5.61320496 C0.82416376 3.76980404 0.4084761 2.2646692 0 0 Z " fill="#464A4C" transform="translate(550,631)"/>
<path d="M0 0 C2.73296087 2.6317401 5.06719725 5.32053087 7.3125 8.375 C9.64261324 11.43642583 11.96810051 13.99105143 14.9375 16.4375 C15.948125 17.283125 16.95875 18.12875 18 19 C18 19.66 18 20.32 18 21 C18.515625 21.2475 19.03125 21.495 19.5625 21.75 C22.77184151 23.39581616 25.87585664 25.1976096 29 27 C27.328125 27.71484375 27.328125 27.71484375 25 28 C14.89192573 22.49078561 5.34061373 13.25640592 0 3 C0 2.01 0 1.02 0 0 Z " fill="#3E4347" transform="translate(225,723)"/>
<path d="M0 0 C0.33 0 0.66 0 1 0 C1 10.56 1 21.12 1 32 C1.66 32 2.32 32 3 32 C3.23668569 39.03482474 2.7879537 45.1834265 1 52 C0.67 52 0.34 52 0 52 C0 34.84 0 17.68 0 0 Z " fill="#393F43" transform="translate(715,344)"/>
<path d="M0 0 C0.33 0 0.66 0 1 0 C3.13965056 7.81437595 3.26738815 15.17709196 3.1875 23.25 C3.18685547 24.50296875 3.18621094 25.7559375 3.18554688 27.046875 C3.13718366 37.10642363 3.13718366 37.10642363 2 42 C1.67 42 1.34 42 1 42 C0.505 21.21 0.505 21.21 0 0 Z " fill="#43484A" transform="translate(715,334)"/>
<path d="M0 0 C0.77537109 0.35771484 0.77537109 0.35771484 1.56640625 0.72265625 C-0.77479737 2.68926729 -2.75041489 3.84689984 -5.62109375 4.97265625 C-9.81630549 6.64892876 -12.99125396 9.40333786 -16.41796875 12.296875 C-18.43359375 13.72265625 -18.43359375 13.72265625 -21.43359375 13.72265625 C-17.87873004 9.02106231 -14.51060654 6.12469619 -9.37109375 3.28515625 C-8.75943359 2.92228516 -8.14777344 2.55941406 -7.51757812 2.18554688 C-3.03948092 -0.34639349 -3.03948092 -0.34639349 0 0 Z " fill="#3F464A" transform="translate(260.43359375,190.27734375)"/>
<path d="M0 0 C1.2065625 0.0309375 1.2065625 0.0309375 2.4375 0.0625 C2.4375 1.0525 2.4375 2.0425 2.4375 3.0625 C0.7875 3.0625 -0.8625 3.0625 -2.5625 3.0625 C-2.665625 4.0525 -2.76875 5.0425 -2.875 6.0625 C-3.47058706 10.34547163 -4.94845027 14.06246371 -6.5625 18.0625 C-6.8925 18.0625 -7.2225 18.0625 -7.5625 18.0625 C-5.93361111 0.14472222 -5.93361111 0.14472222 0 0 Z " fill="#F78D47" transform="translate(781.5625,454.9375)"/>
<path d="M0 0 C0 0.99 0 1.98 0 3 C-0.99 3.33 -1.98 3.66 -3 4 C-3.68303236 5.32502416 -4.34648279 6.6601726 -5 8 C-6.42452809 9.63266597 -7.90913356 11.21410466 -9.4375 12.75 C-10.61119141 13.94882812 -10.61119141 13.94882812 -11.80859375 15.171875 C-14 17 -14 17 -17 17 C-17 16.34 -17 15.68 -17 15 C-15.390625 13.44921875 -15.390625 13.44921875 -13.25 11.6875 C-10.79681109 9.61371465 -8.82239599 7.77672639 -6.8125 5.25 C-4.80096778 2.75292553 -2.81741613 1.48696962 0 0 Z " fill="#3C4145" transform="translate(627,676)"/>
<path d="M0 0 C1.55078125 1.79296875 1.55078125 1.79296875 3.3125 4.1875 C6.00847619 7.76333453 8.74008131 10.93765214 12 14 C8.72703562 13.68012914 7.2671209 13.25027544 4.83203125 10.96875 C4.16558594 10.1540625 3.49914062 9.339375 2.8125 8.5 C0.28942684 5.2707759 0.28942684 5.2707759 -3 3 C-3.33 3.66 -3.66 4.32 -4 5 C-4.33 4.01 -4.66 3.02 -5 2 C-2 0 -2 0 0 0 Z " fill="#454A4D" transform="translate(565,323)"/>
<path d="M0 0 C0.99 0 1.98 0 3 0 C6.13303934 3.85604842 7.03690323 8.11032175 7 13 C6.53469962 15.46609202 5.84199 17.62261646 5 20 C4.34 20 3.68 20 3 20 C3.03480469 19.05898438 3.06960938 18.11796875 3.10546875 17.1484375 C3.13253906 15.90320313 3.15960937 14.65796875 3.1875 13.375 C3.22230469 12.14523437 3.25710938 10.91546875 3.29296875 9.6484375 C2.9787947 5.73592336 1.96906533 3.35929782 0 0 Z " fill="#41474A" transform="translate(595,731)"/>
<path d="M0 0 C0.33 0.66 0.66 1.32 1 2 C-0.2578125 4.6796875 -0.2578125 4.6796875 -2.125 7.875 C-2.72570312 8.92429687 -3.32640625 9.97359375 -3.9453125 11.0546875 C-6.01916045 14.02746574 -8.06836969 15.90018175 -11 18 C-10.36939038 13.98350181 -8.31961324 11.19740538 -6.0625 7.875 C-5.35222656 6.82054687 -4.64195312 5.76609375 -3.91015625 4.6796875 C-2 2 -2 2 0 0 Z " fill="#FCCC46" transform="translate(658,486)"/>
<path d="M0 0 C4.83808941 2.51208489 7.75502851 4.52417725 11 9 C11.721875 9.70125 12.44375 10.4025 13.1875 11.125 C15 13 15 13 16 16 C12.63820226 14.55922954 10.40843732 12.75249979 8 10 C8 9.34 8 8.68 8 8 C7.34 8 6.68 8 6 8 C4.64613064 6.34997172 3.31321858 4.6825613 2 3 C1.34 2.67 0.68 2.34 0 2 C0 1.34 0 0.68 0 0 Z " fill="#414547" transform="translate(674,672)"/>
<path d="M0 0 C0.66 0 1.32 0 2 0 C3.55078125 1.57421875 3.55078125 1.57421875 5.3125 3.6875 C8.08499308 6.95300964 10.92600859 10.01915985 14 13 C12.35 12.67 10.7 12.34 9 12 C8.67 11.01 8.34 10.02 8 9 C6.67592331 8.31513275 5.34090759 7.65129797 4 7 C1.75 5.0625 1.75 5.0625 0 3 C0 2.01 0 1.02 0 0 Z " fill="#3E4346" transform="translate(733,814)"/>
<path d="M0 0 C0.33 1.32 0.66 2.64 1 4 C-0.56020867 4.65134925 -2.12328579 5.29582964 -3.6875 5.9375 C-4.55761719 6.29714844 -5.42773438 6.65679687 -6.32421875 7.02734375 C-8.88179265 7.9570312 -11.3221323 8.54162625 -14 9 C-13.67 8.01 -13.34 7.02 -13 6 C-10.3125 4.90234375 -10.3125 4.90234375 -7 3.9375 C-4.98344629 3.34537515 -2.97807595 2.71015227 -1 2 C-0.67 1.34 -0.34 0.68 0 0 Z " fill="#F88C45" transform="translate(812,489)"/>
<path d="M0 0 C3.07944368 0.22810694 4.32621967 1.266907 6.75 3.25 C10.547241 7.96461727 9.38023011 14.30499798 9 20 C8.67 20 8.34 20 8 20 C7.81824219 18.77023437 7.81824219 18.77023437 7.6328125 17.515625 C7.46523438 16.43796875 7.29765625 15.3603125 7.125 14.25 C6.96257813 13.18265625 6.80015625 12.1153125 6.6328125 11.015625 C5.58630829 6.02858026 3.70341289 3.45651869 0 0 Z " fill="#363C3D" transform="translate(519,457)"/>
<path d="M0 0 C4.45165834 1.39909262 6.85625212 3.60135365 10 7 C10.66 7.66 11.32 8.32 12 9 C12 9.99 12 10.98 12 12 C11.34 12 10.68 12 10 12 C10 11.34 10 10.68 10 10 C9.01 9.67 8.02 9.34 7 9 C7 8.34 7 7.68 7 7 C6.401875 6.731875 5.80375 6.46375 5.1875 6.1875 C3.00152146 5.00082594 1.58667406 3.90400887 0 2 C0 1.34 0 0.68 0 0 Z " fill="#3C4145" transform="translate(703,701)"/>
<path d="M0 0 C0.68449219 0.27585937 1.36898437 0.55171875 2.07421875 0.8359375 C5.31107709 2.12376632 8.56021876 3.37664963 11.8125 4.625 C12.97394531 5.07101562 14.13539063 5.51703125 15.33203125 5.9765625 C16.21246094 6.31429688 17.09289062 6.65203125 18 7 C18 7.33 18 7.66 18 8 C11.46782525 8.71001899 6.42027337 6.68620124 1 3 C0.67 2.01 0.34 1.02 0 0 Z " fill="#3A3F41" transform="translate(580,339)"/>
<path d="M0 0 C4.95364304 2.26452253 7.9822888 5.9941546 10 11 C9.6328125 13.25390625 9.6328125 13.25390625 9 15 C8.34 14.01 7.68 13.02 7 12 C6.51402344 11.2884375 6.02804687 10.576875 5.52734375 9.84375 C4.74037109 8.68359375 4.74037109 8.68359375 3.9375 7.5 C3.41027344 6.7265625 2.88304687 5.953125 2.33984375 5.15625 C1 3 1 3 0 0 Z " fill="#3C4246" transform="translate(703,308)"/>
<path d="M0 0 C3.63061667 1.53218685 5.9863773 3.7183144 8.75 6.5 C9.94882812 7.69109375 9.94882812 7.69109375 11.171875 8.90625 C13 11 13 11 13 13 C11.68 12.67 10.36 12.34 9 12 C9 11.34 9 10.68 9 10 C8.34 10 7.68 10 7 10 C5.61558 8.03501678 4.28796166 6.02951535 3 4 C2.01133494 2.65824027 1.0161846 1.32103998 0 0 Z " fill="#383D41" transform="translate(588,237)"/>
<path d="M0 0 C3.8947778 1.47732951 4.97645504 3.45879633 7 7 C8.29579647 8.36984198 9.61992749 9.7151049 11 11 C8 11 8 11 5 10 C3.61328125 8.22265625 3.61328125 8.22265625 2.3125 6.0625 C1.87550781 5.35222656 1.43851563 4.64195312 0.98828125 3.91015625 C0 2 0 2 0 0 Z " fill="#F98E47" transform="translate(788,471)"/>
<path d="M0 0 C0.7734375 0.495 0.7734375 0.495 1.5625 1 C4.78026512 2.32010877 7.5570528 2.13242105 11 2 C11 2.99 11 3.98 11 5 C7.40780721 5.91893304 5.57834388 6.25145386 2.125 4.75 C1.42375 4.1725 0.7225 3.595 0 3 C0 2.01 0 1.02 0 0 Z " fill="#F6CC4B" transform="translate(669,616)"/>
<path d="M0 0 C0.99 0.33 1.98 0.66 3 1 C-5.07744875 7.70387244 -5.07744875 7.70387244 -11 8 C-7.47072234 5.09353605 -3.94769379 2.31712462 0 0 Z " fill="#FDCD47" transform="translate(643,505)"/>
<path d="M0 0 C2.62386487 3.06117568 3 3.73173127 3 8 C3.66 8.33 4.32 8.66 5 9 C4.67 11.64 4.34 14.28 4 17 C2.04020631 14.06030946 1.51679931 12.44977414 0.875 9.0625 C0.70742188 8.20785156 0.53984375 7.35320312 0.3671875 6.47265625 C0 4 0 4 0 0 Z " fill="#FBCB44" transform="translate(683,450)"/>
<path d="M0 0 C0.33 0.66 0.66 1.32 1 2 C0.67 2.99 0.34 3.98 0 5 C-0.66 5 -1.32 5 -2 5 C-2.99 8.3 -3.98 11.6 -5 15 C-5.33 15 -5.66 15 -6 15 C-6.54957922 9.50420782 -4.96586366 5.53539004 -2 1 C-1.34 0.67 -0.68 0.34 0 0 Z " fill="#3A4144" transform="translate(225,221)"/>
<path d="M0 0 C0.8125 1.6875 0.8125 1.6875 1 4 C-1.46026571 6.87030999 -3.85489214 8.90326143 -7 11 C-9.6875 11.125 -9.6875 11.125 -12 11 C-10.0283713 9.68558087 -8.02817985 8.41285866 -6 7.1875 C-2.98567863 4.98955734 -1.64801901 3.29603801 0 0 Z " fill="#404444" transform="translate(526,478)"/>
<path d="M0 0 C0.53625 0.7425 1.0725 1.485 1.625 2.25 C4.14794339 5.17130287 6.79649169 6.88859679 10 9 C10 9.66 10 10.32 10 11 C5.08351995 9.77087999 2.68940779 8.34442797 0 4 C0 2.68 0 1.36 0 0 Z " fill="#3E4347" transform="translate(315,573)"/>
<path d="M0 0 C-0.309375 0.53625 -0.61875 1.0725 -0.9375 1.625 C-2.14922723 4.04136747 -2.14922723 4.04136747 -2.4375 7.0625 C-3.02933102 10.15317311 -3.57553214 11.10259037 -6 13 C-6.48929664 5.78287462 -6.48929664 5.78287462 -4.125 2 C-2 0 -2 0 0 0 Z " fill="#3B4245" transform="translate(320,459)"/>
<path d="M0 0 C2.94897721 2.74559948 5.26205705 5.34117274 7 9 C6.57421875 11.15625 6.57421875 11.15625 6 13 C4.99193149 11.40089132 3.99379615 9.79551738 3 8.1875 C2.443125 7.29417969 1.88625 6.40085937 1.3125 5.48046875 C0 3 0 3 0 0 Z " fill="#3D4346" transform="translate(250,698)"/>
<path d="M0 0 C0.99 0.495 0.99 0.495 2 1 C2.4140625 3.72265625 2.4140625 3.72265625 2.625 7.0625 C2.69976562 8.16722656 2.77453125 9.27195312 2.8515625 10.41015625 C2.90054687 11.26480469 2.94953125 12.11945313 3 13 C2.01 13.66 1.02 14.32 0 15 C0 10.05 0 5.1 0 0 Z " fill="#555B5E" transform="translate(312,465)"/>
<path d="M0 0 C3.58620225 1.65517027 6.81530529 3.66455721 10 6 C10.33 6.99 10.66 7.98 11 9 C6.39860359 7.51131293 3.49772906 5.25370145 0 2 C0 1.34 0 0.68 0 0 Z " fill="#3C4347" transform="translate(259,713)"/>
<path d="M0 0 C1.68178661 2.52267991 2.90106742 4.81091823 4.125 7.5625 C4.47820312 8.34753906 4.83140625 9.13257813 5.1953125 9.94140625 C6 12 6 12 6 14 C3 13 3 13 1.3125 9.8125 C-0.01535157 6.4652075 -0.26451861 3.61508773 0 0 Z " fill="#3D4347" transform="translate(218,707)"/>
<path d="M0 0 C1.13199353 0.9080162 2.25532363 1.82683826 3.375 2.75 C4.00148438 3.26046875 4.62796875 3.7709375 5.2734375 4.296875 C7.08312318 6.08199481 8.00117455 7.67949644 9 10 C6 10 6 10 4.39453125 8.57421875 C3.61142578 7.64029297 3.61142578 7.64029297 2.8125 6.6875 C2.01779297 5.76517578 2.01779297 5.76517578 1.20703125 4.82421875 C0 3 0 3 0 0 Z " fill="#393F42" transform="translate(615,695)"/>
<path d="M0 0 C3.74525799 3.74525799 3.68909949 7.98270909 4 13 C3.34 13 2.68 13 2 13 C0.54815522 8.46298506 -0.23509196 4.81938524 0 0 Z " fill="#FBCB49" transform="translate(661,585)"/>
<path d="M0 0 C0.33 0.99 0.66 1.98 1 3 C-0.1875 4.5625 -0.1875 4.5625 -2 6 C-4.6875 5.6875 -4.6875 5.6875 -7 5 C-4.87219421 2.65941363 -2.88437779 1.29299694 0 0 Z " fill="#42484B" transform="translate(596,752)"/>
<path d="M0 0 C0 0.66 0 1.32 0 2 C-1.60341555 2.33692785 -3.20776555 2.66941093 -4.8125 3 C-5.70582031 3.185625 -6.59914063 3.37125 -7.51953125 3.5625 C-10 4 -10 4 -13 4 C-11 1 -11 1 -8.1875 0.3125 C-5.42559682 0.04172518 -2.77147648 -0.08151401 0 0 Z " fill="#35383A" transform="translate(586,586)"/>
<path d="M0 0 C0.66 0 1.32 0 2 0 C3.39300182 1.95890881 4.72245446 3.9639118 6 6 C6.99 7.485 6.99 7.485 8 9 C4.86493389 8.66410006 3.974751 7.97334828 1.75 5.625 C0 3 0 3 0 0 Z " fill="#41474A" transform="translate(314,478)"/>
<path d="M0 0 C2.93200474 2.85276137 5.64315404 5.65079784 8 9 C7.67 9.66 7.34 10.32 7 11 C4.35247996 8.42215154 2.05567935 6.08351902 0 3 C0 2.01 0 1.02 0 0 Z " fill="#3A4043" transform="translate(588,300)"/>
<path d="M0 0 C0 0.66 0 1.32 0 2 C-1.96875 3.5078125 -1.96875 3.5078125 -4.5 5.125 C-5.3353125 5.66382813 -6.170625 6.20265625 -7.03125 6.7578125 C-7.6809375 7.16773438 -8.330625 7.57765625 -9 8 C-9.66 7.67 -10.32 7.34 -11 7 C-9.87720538 6.01830524 -8.75168527 5.03972702 -7.625 4.0625 C-6.68527344 3.24458984 -6.68527344 3.24458984 -5.7265625 2.41015625 C-3.71547429 0.76761588 -2.62199195 0 0 0 Z " fill="#3F4549" transform="translate(271,223)"/>
<path d="M0 0 C-1.44253657 3.36591866 -3.33264727 5.51047079 -6 8 C-6.99 7.67 -7.98 7.34 -9 7 C-7.88121617 5.82737096 -6.75476949 4.66204862 -5.625 3.5 C-4.68527344 2.52546875 -4.68527344 2.52546875 -3.7265625 1.53125 C-2 0 -2 0 0 0 Z " fill="#3C4144" transform="translate(627,652)"/>
<path d="M0 0 C10.55808656 1.92710706 10.55808656 1.92710706 15 4 C11.52487282 5.15837573 9.86329714 4.77265943 6.3125 4.0625 C5.31863281 3.86785156 4.32476563 3.67320312 3.30078125 3.47265625 C2.54152344 3.31667969 1.78226563 3.16070313 1 3 C0.67 2.01 0.34 1.02 0 0 Z " fill="#FDCA3F" transform="translate(597,537)"/>
<path d="M0 0 C3.98175544 2.10148204 6.35039045 4.36905358 9 8 C8.67 8.66 8.34 9.32 8 10 C6.33333333 8.33333333 4.66666667 6.66666667 3 5 C2.401875 4.443125 1.80375 3.88625 1.1875 3.3125 C0 2 0 2 0 0 Z " fill="#FDCB44" transform="translate(699,497)"/>
<path d="M0 0 C2.0625 0.4375 2.0625 0.4375 4 1 C2.76055724 1.86941494 1.50792941 2.72005457 0.25 3.5625 C-0.44609375 4.03816406 -1.1421875 4.51382812 -1.859375 5.00390625 C-4 6 -4 6 -6.265625 5.65234375 C-6.83796875 5.43707031 -7.4103125 5.22179687 -8 5 C-6.20963542 3.99088542 -4.41927083 2.98177083 -2.62890625 1.97265625 C-1.02121854 1.1027487 -1.02121854 1.1027487 0 0 Z " fill="#FC8F44" transform="translate(765,480)"/>
<path d="M0 0 C0.66 0 1.32 0 2 0 C1.67 3.63 1.34 7.26 1 11 C0.34 11 -0.32 11 -1 11 C-0.67 7.37 -0.34 3.74 0 0 Z " fill="#FCCB46" transform="translate(666,453)"/>
<path d="M0 0 C0.33 0.66 0.66 1.32 1 2 C-0.28965176 3.37562854 -1.62689293 4.70766393 -3 6 C-3.66 6 -4.32 6 -5 6 C-5.66 4.35 -6.32 2.7 -7 1 C-6.34 1 -5.68 1 -5 1 C-5 1.66 -5 2.32 -5 3 C-3.35 2.01 -1.7 1.02 0 0 Z " fill="#3F4447" transform="translate(602,675)"/>
<path d="M0 0 C0.33 0 0.66 0 1 0 C1.08167446 1.41569064 1.13949698 2.83276805 1.1875 4.25 C1.22230469 5.03890625 1.25710938 5.8278125 1.29296875 6.640625 C0.93578688 9.51712968 -0.11751718 10.84576769 -2 13 C-1.85851011 11.3954444 -1.71164314 9.79136233 -1.5625 8.1875 C-1.48128906 7.29417969 -1.40007813 6.40085937 -1.31640625 5.48046875 C-1 3 -1 3 0 0 Z " fill="#FDCD3E" transform="translate(686,594)"/>
<path d="M0 0 C0.99 0.66 1.98 1.32 3 2 C3 2.66 3 3.32 3 4 C2.38125 4.12375 1.7625 4.2475 1.125 4.375 C-1.19120832 4.87197356 -1.19120832 4.87197356 -3 7 C-3.1875 4.625 -3.1875 4.625 -3 2 C-2.01 1.34 -1.02 0.68 0 0 Z " fill="#FB8C43" transform="translate(763,574)"/>
<path d="M0 0 C2.66753731 0.36793618 3.81998328 0.81998328 5.75 2.75 C7.21079991 5.37943983 7.24687966 7.0374441 7 10 C4.51137122 6.76478258 2.24578442 3.40739705 0 0 Z " fill="#3F4446" transform="translate(448,553)"/>
<path d="M0 0 C0.33 0 0.66 0 1 0 C1 3.63 1 7.26 1 11 C-2 8 -2 8 -2.1875 5.3125 C-2.125625 4.549375 -2.06375 3.78625 -2 3 C-1.34 3 -0.68 3 0 3 C0 2.01 0 1.02 0 0 Z " fill="#40464A" transform="translate(314,371)"/>
<path d="M0 0 C0.66 0.33 1.32 0.66 2 1 C2.4140625 3.28515625 2.4140625 3.28515625 2.625 6.0625 C2.69976563 6.98160156 2.77453125 7.90070312 2.8515625 8.84765625 C2.92503906 9.91306641 2.92503906 9.91306641 3 11 C2.67 10.01 2.34 9.02 2 8 C1.01 7.67 0.02 7.34 -1 7 C-0.67 4.69 -0.34 2.38 0 0 Z " fill="#FACA46" transform="translate(665,600)"/>
<path d="M0 0 C0.66 0 1.32 0 2 0 C3.44207941 2.88415883 3.09394887 5.41721528 3.0625 8.625 C3.05347656 9.81351562 3.04445313 11.00203125 3.03515625 12.2265625 C3.02355469 13.14179688 3.01195312 14.05703125 3 15 C2.67 15 2.34 15 2 15 C1.93941406 14.33613281 1.87882813 13.67226563 1.81640625 12.98828125 C1.20136493 6.45091919 1.20136493 6.45091919 0 0 Z " fill="#34393C" transform="translate(525,366)"/>
<path d="M0 0 C0 0.99 0 1.98 0 3 C-3.3 3.33 -6.6 3.66 -10 4 C-7.25346796 1.25346796 -3.91404908 0 0 0 Z " fill="#40464A" transform="translate(283,218)"/>
<path d="M0 0 C-1.29299694 2.88437779 -2.65941363 4.87219421 -5 7 C-5.99 6.67 -6.98 6.34 -8 6 C-7.0479279 4.99403703 -6.08812654 3.99538437 -5.125 3 C-4.59132813 2.443125 -4.05765625 1.88625 -3.5078125 1.3125 C-2 0 -2 0 0 0 Z " fill="#3B3F43" transform="translate(635,644)"/>
<path d="M0 0 C6.4 -0.36923077 6.4 -0.36923077 9.4375 1.5 C9.953125 1.995 10.46875 2.49 11 3 C10.67 3.66 10.34 4.32 10 5 C5.05 3.02 5.05 3.02 0 1 C0 0.67 0 0.34 0 0 Z " fill="#373D40" transform="translate(512,359)"/>
<path d="M0 0 C1.32 0.33 2.64 0.66 4 1 C0.535 3.97 0.535 3.97 -3 7 C-3.66 6.67 -4.32 6.34 -5 6 C-3.35 4.02 -1.7 2.04 0 0 Z " fill="#363C40" transform="translate(244,198)"/>
<path d="M0 0 C0.66 0.99 1.32 1.98 2 3 C-1.63 2.67 -5.26 2.34 -9 2 C-5.29489954 0.14744977 -3.93924189 -0.5183213 0 0 Z " fill="#565B5E" transform="translate(761,830)"/>
<path d="M0 0 C2 2 2 2 2 5 C3.32 5 4.64 5 6 5 C5.67 5.99 5.34 6.98 5 8 C3.68 7.67 2.36 7.34 1 7 C0.67 4.69 0.34 2.38 0 0 Z " fill="#EF8744" transform="translate(760,634)"/>
<path d="M0 0 C0.33 1.32 0.66 2.64 1 4 C-0.65 5.32 -2.3 6.64 -4 8 C-4 4.09161134 -2.49432124 2.88405893 0 0 Z " fill="#FCCB45" transform="translate(701,562)"/>
<path d="M0 0 C-1.36983503 3.16115776 -1.9890638 3.9927092 -5 6 C-5.99 5.67 -6.98 5.34 -8 5 C-2.25 0 -2.25 0 0 0 Z " fill="#FDCE45" transform="translate(715,551)"/>
<path d="M0 0 C3.77300358 1.0197307 4.80206144 1.65872662 6.8125 5.125 C7.204375 6.07375 7.59625 7.0225 8 8 C4.63820226 6.55922954 2.40843732 4.75249979 0 2 C0 1.34 0 0.68 0 0 Z " fill="#393D40" transform="translate(682,680)"/>
<path d="M0 0 C2.86724686 0.57344937 3.8614515 0.8614515 6 3 C6 3.99 6 4.98 6 6 C4 6 4 6 1.875 4.125 C0 2 0 2 0 0 Z " fill="#3F4447" transform="translate(759,757)"/>
<path d="M0 0 C1.65 1.32 3.3 2.64 5 4 C4.67 4.99 4.34 5.98 4 7 C3.67 6.34 3.34 5.68 3 5 C1.35636866 4.27840576 -0.31050386 3.60648579 -2 3 C-1.34 2.67 -0.68 2.34 0 2 C0 1.34 0 0.68 0 0 Z " fill="#5F615F" transform="translate(637,632)"/>
<path d="M0 0 C0.33 0 0.66 0 1 0 C1.36923077 5.53846154 1.36923077 5.53846154 -0.5 7.875 C-1.2425 8.431875 -1.2425 8.431875 -2 9 C-1.125 1.125 -1.125 1.125 0 0 Z " fill="#FA8943" transform="translate(769,627)"/>
<path d="M0 0 C3.60654039 2.40436026 3.85452932 3.94679607 5 8 C4.01 8 3.02 8 2 8 C0.74335022 5.09399739 0 3.20395416 0 0 Z " fill="#F98D47" transform="translate(754,620)"/>
<path d="M0 0 C2.84326464 -0.23053497 4.46145349 -0.35903101 6.875 1.25 C8 3 8 3 7.6875 5.1875 C7.460625 5.785625 7.23375 6.38375 7 7 C6.938125 6.071875 6.938125 6.071875 6.875 5.125 C6.58625 4.42375 6.2975 3.7225 6 3 C3.00384054 1.6954344 3.00384054 1.6954344 0 1 C0 0.67 0 0.34 0 0 Z " fill="#FCC548" transform="translate(752,525)"/>
<path d="M0 0 C2.625 -0.1875 2.625 -0.1875 5 0 C4.01 0.66 3.02 1.32 2 2 C1.27617533 4.05925139 1.27617533 4.05925139 1 6 C0.34 6 -0.32 6 -1 6 C-1.33 5.01 -1.66 4.02 -2 3 C-1.34 2.01 -0.68 1.02 0 0 Z " fill="#FA8C40" transform="translate(751,486)"/>
<path d="M0 0 C0.33 0 0.66 0 1 0 C1.1875 3.375 1.1875 3.375 1 7 C0.01 7.66 -0.98 8.32 -2 9 C-1.125 2.25 -1.125 2.25 0 0 Z " fill="#363C3F" transform="translate(250,245)"/>
<path d="M0 0 C0.33 0 0.66 0 1 0 C1 4.95 1 9.9 1 15 C0.67 15 0.34 15 0 15 C0 10.05 0 5.1 0 0 Z " fill="#5B6165" transform="translate(212,473)"/>
<path d="M0 0 C0.33 0 0.66 0 1 0 C1 3.3 1 6.6 1 10 C0.67 10 0.34 10 0 10 C0 6.7 0 3.4 0 0 Z " fill="#5C6266" transform="translate(212,601)"/>
<path d="M0 0 C0.33 0 0.66 0 1 0 C1 2.64 1 5.28 1 8 C0.67 8 0.34 8 0 8 C0 5.36 0 2.72 0 0 Z " fill="#5C6266" transform="translate(212,640)"/>
<path d="M0 0 C0.33 0 0.66 0 1 0 C1 2.64 1 5.28 1 8 C0.67 8 0.34 8 0 8 C0 5.36 0 2.72 0 0 Z " fill="#5B6064" transform="translate(212,272)"/>
<path d="M0 0 C0.33 0 0.66 0 1 0 C1 2.31 1 4.62 1 7 C0.67 7 0.34 7 0 7 C0 4.69 0 2.38 0 0 Z " fill="#5B6165" transform="translate(212,649)"/>
<path d="M0 0 C0.33 0 0.66 0 1 0 C1 2.31 1 4.62 1 7 C0.67 7 0.34 7 0 7 C0 4.69 0 2.38 0 0 Z " fill="#5B6265" transform="translate(212,537)"/>
<path d="M0 0 C0.33 0 0.66 0 1 0 C1 2.31 1 4.62 1 7 C0.67 7 0.34 7 0 7 C0 4.69 0 2.38 0 0 Z " fill="#5C6266" transform="translate(212,465)"/>
<path d="M0 0 C0.33 0 0.66 0 1 0 C1 2.31 1 4.62 1 7 C0.67 7 0.34 7 0 7 C0 4.69 0 2.38 0 0 Z " fill="#5A6064" transform="translate(212,425)"/>
<path d="M0 0 C0.33 0 0.66 0 1 0 C1 2.31 1 4.62 1 7 C0.67 7 0.34 7 0 7 C0 4.69 0 2.38 0 0 Z " fill="#5B6165" transform="translate(212,345)"/>
<path d="M0 0 C0.33 0 0.66 0 1 0 C1 1.98 1 3.96 1 6 C0.67 6 0.34 6 0 6 C0 4.02 0 2.04 0 0 Z " fill="#5B6165" transform="translate(212,330)"/>
<path d="M0 0 C0.33 0 0.66 0 1 0 C1 1.98 1 3.96 1 6 C0.67 6 0.34 6 0 6 C0 4.02 0 2.04 0 0 Z " fill="#5B6165" transform="translate(212,321)"/>
<path d="M0 0 C0.99 1.485 0.99 1.485 2 3 C1.01 3.495 1.01 3.495 0 4 C0 2.68 0 1.36 0 0 Z " fill="#616568" transform="translate(608,691)"/>
<path d="M0 0 C0.33 0 0.66 0 1 0 C1 1.65 1 3.3 1 5 C0.67 5 0.34 5 0 5 C0 3.35 0 1.7 0 0 Z " fill="#5C6266" transform="translate(212,674)"/>
<path d="M0 0 C0.33 0 0.66 0 1 0 C1 1.65 1 3.3 1 5 C0.67 5 0.34 5 0 5 C0 3.35 0 1.7 0 0 Z " fill="#5C6166" transform="translate(212,666)"/>
<path d="M0 0 C0.33 0 0.66 0 1 0 C1 1.65 1 3.3 1 5 C0.67 5 0.34 5 0 5 C0 3.35 0 1.7 0 0 Z " fill="#5D6265" transform="translate(212,617)"/>
<path d="M0 0 C0.33 0 0.66 0 1 0 C1 1.65 1 3.3 1 5 C0.67 5 0.34 5 0 5 C0 3.35 0 1.7 0 0 Z " fill="#5C6265" transform="translate(212,571)"/>
<path d="M0 0 C0.33 0 0.66 0 1 0 C1 1.65 1 3.3 1 5 C0.67 5 0.34 5 0 5 C0 3.35 0 1.7 0 0 Z " fill="#5B6165" transform="translate(212,526)"/>
<path d="M0 0 C1.65 0 3.3 0 5 0 C5 0.33 5 0.66 5 1 C3.35 1 1.7 1 0 1 C0 0.67 0 0.34 0 0 Z " fill="#5F6467" transform="translate(667,351)"/>
<path d="M0 0 C1 4 1 4 1 4 Z " fill="#5D6266" transform="translate(212,684)"/>
<path d="M0 0 C1 4 1 4 1 4 Z " fill="#5D6165" transform="translate(212,633)"/>
<path d="M0 0 C1 4 1 4 1 4 Z " fill="#5B6265" transform="translate(212,612)"/>
<path d="M0 0 C0.99 1.485 0.99 1.485 2 3 C1.34 3 0.68 3 0 3 C0 2.01 0 1.02 0 0 Z " fill="#F4CD61" transform="translate(656,581)"/>
<path d="M0 0 C1 4 1 4 1 4 Z " fill="#5D6266" transform="translate(212,577)"/>
<path d="M0 0 C1 4 1 4 1 4 Z " fill="#5B6164" transform="translate(212,556)"/>
<path d="M0 0 C1 4 1 4 1 4 Z " fill="#5C6165" transform="translate(212,548)"/>
<path d="M0 0 C1 4 1 4 1 4 Z " fill="#5C6266" transform="translate(212,521)"/>
<path d="M0 0 C1 4 1 4 1 4 Z " fill="#5D6366" transform="translate(212,515)"/>
<path d="M0 0 C1 4 1 4 1 4 Z " fill="#5B6265" transform="translate(212,492)"/>
<path d="M0 0 C1 4 1 4 1 4 Z " fill="#5B6165" transform="translate(212,433)"/>
<path d="M0 0 C1 4 1 4 1 4 Z " fill="#616465" transform="translate(680,377)"/>
<path d="M0 0 C1 4 1 4 1 4 Z " fill="#5A6164" transform="translate(212,364)"/>
<path d="M0 0 C1 4 1 4 1 4 Z " fill="#5A6064" transform="translate(212,356)"/>
<path d="M0 0 C4 1 4 1 4 1 Z " fill="#626569" transform="translate(659,351)"/>
<path d="M0 0 C1 4 1 4 1 4 Z " fill="#5B6165" transform="translate(212,313)"/>
<path d="M0 0 C1 4 1 4 1 4 Z " fill="#5C6165" transform="translate(212,305)"/>
<path d="M0 0 C4 1 4 1 4 1 Z " fill="#61676B" transform="translate(535,221)"/>
<path d="M0 0 C4 1 4 1 4 1 Z " fill="#61666B" transform="translate(520,221)"/>
<path d="" fill="#5B6266" transform="translate(0,0)"/>
<path d="" fill="#5D6366" transform="translate(0,0)"/>
<path d="M0 0 C3 1 3 1 3 1 Z " fill="#ECCB68" transform="translate(601,520)"/>
<path d="M0 0 C0.66 0.66 1.32 1.32 2 2 C1.34 2 0.68 2 0 2 C0 1.34 0 0.68 0 0 Z " fill="#F5A65E" transform="translate(761,498)"/>
<path d="" fill="#5C6266" transform="translate(0,0)"/>
<path d="M0 0 C0.33 0.66 0.66 1.32 1 2 C0.34 1.67 -0.32 1.34 -1 1 C-0.67 0.67 -0.34 0.34 0 0 Z " fill="#77756B" transform="translate(683,405)"/>
<path d="M0 0 C0.99 0.495 0.99 0.495 2 1 C1.01 1.495 1.01 1.495 0 2 C0 1.34 0 0.68 0 0 Z " fill="#75736A" transform="translate(680,402)"/>
<path d="" fill="#5A6064" transform="translate(0,0)"/>
<path d="" fill="#5E6265" transform="translate(0,0)"/>
<path d="M0 0 C3 1 3 1 3 1 Z " fill="#61666A" transform="translate(473,221)"/>
<path d="M0 0 C3 1 3 1 3 1 Z " fill="#62686B" transform="translate(417,221)"/>
<path d="M0 0 C3 1 3 1 3 1 Z " fill="#62686C" transform="translate(311,221)"/>
<path d="" fill="#5C6062" transform="translate(0,0)"/>
<path d="M0 0 C2 1 2 1 2 1 Z " fill="#596063" transform="translate(263,758)"/>
<path d="M0 0 C2 1 2 1 2 1 Z " fill="#61676B" transform="translate(273,720)"/>
<path d="" fill="#5A5F63" transform="translate(0,0)"/>
<path d="" fill="#5D6366" transform="translate(0,0)"/>
<path d="" fill="#D2B76A" transform="translate(0,0)"/>
<path d="" fill="#636667" transform="translate(0,0)"/>
<path d="M0 0 C2 1 2 1 2 1 Z " fill="#E9A161" transform="translate(741,615)"/>
<path d="" fill="#EFCC65" transform="translate(0,0)"/>
<path d="" fill="#5C6165" transform="translate(0,0)"/>
<path d="" fill="#5C6266" transform="translate(0,0)"/>
<path d="" fill="#5C6366" transform="translate(0,0)"/>
<path d="" fill="#F7CF61" transform="translate(0,0)"/>
<path d="" fill="#5B6264" transform="translate(0,0)"/>
<path d="M0 0 C2 1 2 1 2 1 Z " fill="#F7CB64" transform="translate(742,543)"/>
<path d="M0 0 C2 1 2 1 2 1 Z " fill="#EBC768" transform="translate(602,542)"/>
<path d="" fill="#5A6064" transform="translate(0,0)"/>
<path d="" fill="#5A6166" transform="translate(0,0)"/>
<path d="" fill="#F5A660" transform="translate(0,0)"/>
<path d="" fill="#5C6164" transform="translate(0,0)"/>
<path d="M0 0 C2 1 2 1 2 1 Z " fill="#F8D264" transform="translate(641,504)"/>
<path d="" fill="#5C6165" transform="translate(0,0)"/>
<path d="" fill="#F7D064" transform="translate(0,0)"/>
<path d="" fill="#EA9E60" transform="translate(0,0)"/>
<path d="" fill="#5A6164" transform="translate(0,0)"/>
<path d="M0 0 C2 1 2 1 2 1 Z " fill="#8A816D" transform="translate(691,415)"/>
<path d="M0 0 C2 1 2 1 2 1 Z " fill="#847C6A" transform="translate(690,413)"/>
<path d="" fill="#747167" transform="translate(0,0)"/>
<path d="" fill="#5C6166" transform="translate(0,0)"/>
<path d="" fill="#595F65" transform="translate(0,0)"/>
<path d="" fill="#5C6165" transform="translate(0,0)"/>
<path d="" fill="#5B6165" transform="translate(0,0)"/>
<path d="" fill="#636767" transform="translate(0,0)"/>
<path d="" fill="#636667" transform="translate(0,0)"/>
<path d="" fill="#5D6265" transform="translate(0,0)"/>
<path d="M0 0 C2 1 2 1 2 1 Z " fill="#626669" transform="translate(644,351)"/>
<path d="M0 0 C2 1 2 1 2 1 Z " fill="#65686A" transform="translate(628,351)"/>
<path d="M0 0 C2 1 2 1 2 1 Z " fill="#626568" transform="translate(616,351)"/>
<path d="" fill="#606467" transform="translate(0,0)"/>
<path d="" fill="#5A6165" transform="translate(0,0)"/>
<path d="M0 0 C2 1 2 1 2 1 Z " fill="#616769" transform="translate(608,312)"/>
<path d="M0 0 C2 1 2 1 2 1 Z " fill="#5C6366" transform="translate(605,312)"/>
<path d="" fill="#5B6165" transform="translate(0,0)"/>
<path d="" fill="#5C6065" transform="translate(0,0)"/>
<path d="" fill="#5C6265" transform="translate(0,0)"/>
<path d="" fill="#61656A" transform="translate(0,0)"/>
<path d="" fill="#5B6065" transform="translate(0,0)"/>
<path d="M0 0 C2 1 2 1 2 1 Z " fill="#62686C" transform="translate(276,223)"/>
<path d="M0 0 C2 1 2 1 2 1 Z " fill="#61676B" transform="translate(371,222)"/>
<path d="M0 0 C2 1 2 1 2 1 Z " fill="#61696C" transform="translate(281,222)"/>
<path d="M0 0 C2 1 2 1 2 1 Z " fill="#62676C" transform="translate(505,221)"/>
<path d="M0 0 C2 1 2 1 2 1 Z " fill="#62676B" transform="translate(497,221)"/>
<path d="M0 0 C2 1 2 1 2 1 Z " fill="#62686B" transform="translate(369,221)"/>
<path d="" fill="#5B5E61" transform="translate(0,0)"/>
<path d="" fill="#5A5D5E" transform="translate(0,0)"/>
<path d="" fill="#5C6164" transform="translate(0,0)"/>
<path d="" fill="#5E6163" transform="translate(0,0)"/>
<path d="" fill="#5B6062" transform="translate(0,0)"/>
<path d="" fill="#595F61" transform="translate(0,0)"/>
<path d="" fill="#5D6064" transform="translate(0,0)"/>
<path d="" fill="#5B6062" transform="translate(0,0)"/>
<path d="" fill="#5E6264" transform="translate(0,0)"/>
<path d="" fill="#5F6265" transform="translate(0,0)"/>
<path d="" fill="#5F6464" transform="translate(0,0)"/>
<path d="" fill="#606264" transform="translate(0,0)"/>
<path d="" fill="#5E6466" transform="translate(0,0)"/>
<path d="" fill="#5D6165" transform="translate(0,0)"/>
<path d="" fill="#5D6265" transform="translate(0,0)"/>
<path d="" fill="#646667" transform="translate(0,0)"/>
<path d="" fill="#5E6167" transform="translate(0,0)"/>
<path d="" fill="#5E6363" transform="translate(0,0)"/>
<path d="" fill="#5C6165" transform="translate(0,0)"/>
<path d="" fill="#5C6164" transform="translate(0,0)"/>
<path d="" fill="#5B5F63" transform="translate(0,0)"/>
<path d="" fill="#5D6164" transform="translate(0,0)"/>
<path d="" fill="#5F6263" transform="translate(0,0)"/>
<path d="" fill="#5F6468" transform="translate(0,0)"/>
<path d="" fill="#5D6267" transform="translate(0,0)"/>
<path d="" fill="#595E61" transform="translate(0,0)"/>
<path d="" fill="#5F6367" transform="translate(0,0)"/>
<path d="" fill="#5A5F62" transform="translate(0,0)"/>
<path d="" fill="#595D64" transform="translate(0,0)"/>
<path d="" fill="#585E61" transform="translate(0,0)"/>
<path d="" fill="#606465" transform="translate(0,0)"/>
<path d="" fill="#5A6163" transform="translate(0,0)"/>
<path d="" fill="#595F61" transform="translate(0,0)"/>
<path d="" fill="#5A5E63" transform="translate(0,0)"/>
<path d="" fill="#606568" transform="translate(0,0)"/>
<path d="" fill="#626669" transform="translate(0,0)"/>
<path d="" fill="#616567" transform="translate(0,0)"/>
<path d="" fill="#5C6165" transform="translate(0,0)"/>
<path d="" fill="#616468" transform="translate(0,0)"/>
<path d="" fill="#5C6266" transform="translate(0,0)"/>
<path d="" fill="#696A68" transform="translate(0,0)"/>
<path d="" fill="#5C6166" transform="translate(0,0)"/>
<path d="" fill="#606668" transform="translate(0,0)"/>
<path d="" fill="#626467" transform="translate(0,0)"/>
<path d="" fill="#5F6669" transform="translate(0,0)"/>
<path d="" fill="#5B6265" transform="translate(0,0)"/>
<path d="" fill="#5B6366" transform="translate(0,0)"/>
<path d="" fill="#636567" transform="translate(0,0)"/>
<path d="" fill="#6B6C6A" transform="translate(0,0)"/>
<path d="" fill="#636568" transform="translate(0,0)"/>
<path d="" fill="#5E6368" transform="translate(0,0)"/>
<path d="" fill="#63686A" transform="translate(0,0)"/>
<path d="" fill="#61646A" transform="translate(0,0)"/>
<path d="" fill="#61656B" transform="translate(0,0)"/>
<path d="" fill="#626568" transform="translate(0,0)"/>
<path d="" fill="#62666A" transform="translate(0,0)"/>
<path d="" fill="#656869" transform="translate(0,0)"/>
<path d="" fill="#656969" transform="translate(0,0)"/>
<path d="" fill="#62676A" transform="translate(0,0)"/>
<path d="" fill="#5D6267" transform="translate(0,0)"/>
<path d="" fill="#70726C" transform="translate(0,0)"/>
<path d="" fill="#626667" transform="translate(0,0)"/>
<path d="" fill="#616566" transform="translate(0,0)"/>
<path d="" fill="#5B6265" transform="translate(0,0)"/>
<path d="" fill="#616769" transform="translate(0,0)"/>
<path d="" fill="#E59C60" transform="translate(0,0)"/>
<path d="" fill="#606669" transform="translate(0,0)"/>
<path d="" fill="#E79B61" transform="translate(0,0)"/>
<path d="" fill="#5D6567" transform="translate(0,0)"/>
<path d="" fill="#5F6267" transform="translate(0,0)"/>
<path d="" fill="#EDA163" transform="translate(0,0)"/>
<path d="" fill="#E69A5E" transform="translate(0,0)"/>
<path d="" fill="#EA9E60" transform="translate(0,0)"/>
<path d="" fill="#D5B86C" transform="translate(0,0)"/>
<path d="" fill="#D0B96C" transform="translate(0,0)"/>
<path d="" fill="#D3BB6C" transform="translate(0,0)"/>
<path d="" fill="#CFB76A" transform="translate(0,0)"/>
<path d="" fill="#62676A" transform="translate(0,0)"/>
<path d="" fill="#D5B769" transform="translate(0,0)"/>
<path d="" fill="#E2975B" transform="translate(0,0)"/>
<path d="" fill="#E4965C" transform="translate(0,0)"/>
<path d="" fill="#ECA161" transform="translate(0,0)"/>
<path d="" fill="#E0C26C" transform="translate(0,0)"/>
<path d="" fill="#DA935C" transform="translate(0,0)"/>
<path d="" fill="#E8A364" transform="translate(0,0)"/>
<path d="" fill="#626669" transform="translate(0,0)"/>
<path d="" fill="#E4C36A" transform="translate(0,0)"/>
<path d="" fill="#EFCB66" transform="translate(0,0)"/>
<path d="" fill="#EAAC66" transform="translate(0,0)"/>
<path d="" fill="#696965" transform="translate(0,0)"/>
<path d="" fill="#E1995B" transform="translate(0,0)"/>
<path d="" fill="#EDC764" transform="translate(0,0)"/>
<path d="" fill="#F4A762" transform="translate(0,0)"/>
<path d="" fill="#616569" transform="translate(0,0)"/>
<path d="" fill="#5C6268" transform="translate(0,0)"/>
<path d="" fill="#6B6E6B" transform="translate(0,0)"/>
<path d="" fill="#6B6D68" transform="translate(0,0)"/>
<path d="" fill="#F3A263" transform="translate(0,0)"/>
<path d="" fill="#F2CB62" transform="translate(0,0)"/>
<path d="" fill="#F3CD63" transform="translate(0,0)"/>
<path d="" fill="#64686A" transform="translate(0,0)"/>
<path d="" fill="#606569" transform="translate(0,0)"/>
<path d="" fill="#F7CF60" transform="translate(0,0)"/>
<path d="" fill="#F8D161" transform="translate(0,0)"/>
<path d="" fill="#EFAD67" transform="translate(0,0)"/>
<path d="" fill="#F9D061" transform="translate(0,0)"/>
<path d="" fill="#F6CF63" transform="translate(0,0)"/>
<path d="" fill="#F5CF60" transform="translate(0,0)"/>
<path d="" fill="#5B6366" transform="translate(0,0)"/>
<path d="" fill="#F6D062" transform="translate(0,0)"/>
<path d="" fill="#5C6266" transform="translate(0,0)"/>
<path d="" fill="#5E6366" transform="translate(0,0)"/>
<path d="" fill="#F3D064" transform="translate(0,0)"/>
<path d="" fill="#656969" transform="translate(0,0)"/>
<path d="" fill="#F5CD65" transform="translate(0,0)"/>
<path d="" fill="#FCD162" transform="translate(0,0)"/>
<path d="" fill="#606569" transform="translate(0,0)"/>
<path d="" fill="#F4CC64" transform="translate(0,0)"/>
<path d="" fill="#F3CD65" transform="translate(0,0)"/>
<path d="" fill="#5C6267" transform="translate(0,0)"/>
<path d="" fill="#F5C966" transform="translate(0,0)"/>
<path d="" fill="#E9C66B" transform="translate(0,0)"/>
<path d="" fill="#E3C36B" transform="translate(0,0)"/>
<path d="" fill="#62656B" transform="translate(0,0)"/>
<path d="" fill="#5C6364" transform="translate(0,0)"/>
<path d="" fill="#62686D" transform="translate(0,0)"/>
<path d="" fill="#E5C468" transform="translate(0,0)"/>
<path d="" fill="#F4C765" transform="translate(0,0)"/>
<path d="" fill="#E4C568" transform="translate(0,0)"/>
<path d="" fill="#F3CD64" transform="translate(0,0)"/>
<path d="" fill="#F7CE65" transform="translate(0,0)"/>
<path d="" fill="#F7D162" transform="translate(0,0)"/>
<path d="" fill="#F6CF61" transform="translate(0,0)"/>
<path d="" fill="#5C6366" transform="translate(0,0)"/>
<path d="" fill="#F8CF64" transform="translate(0,0)"/>
<path d="" fill="#F2CD62" transform="translate(0,0)"/>
<path d="" fill="#F4D263" transform="translate(0,0)"/>
<path d="" fill="#ED9F5E" transform="translate(0,0)"/>
<path d="" fill="#5C6367" transform="translate(0,0)"/>
<path d="" fill="#F4A35D" transform="translate(0,0)"/>
<path d="" fill="#F8D366" transform="translate(0,0)"/>
<path d="" fill="#EF9F5A" transform="translate(0,0)"/>
<path d="" fill="#5B6365" transform="translate(0,0)"/>
<path d="" fill="#EC9C5A" transform="translate(0,0)"/>
<path d="" fill="#F7A75E" transform="translate(0,0)"/>
<path d="" fill="#5E6366" transform="translate(0,0)"/>
<path d="" fill="#5D6266" transform="translate(0,0)"/>
<path d="" fill="#64696C" transform="translate(0,0)"/>
<path d="" fill="#F3AF66" transform="translate(0,0)"/>
<path d="" fill="#656C6E" transform="translate(0,0)"/>
<path d="" fill="#5D6466" transform="translate(0,0)"/>
<path d="" fill="#5F6369" transform="translate(0,0)"/>
<path d="" fill="#EFA661" transform="translate(0,0)"/>
<path d="" fill="#F6D064" transform="translate(0,0)"/>
<path d="" fill="#F7D165" transform="translate(0,0)"/>
<path d="" fill="#5E6569" transform="translate(0,0)"/>
<path d="" fill="#EFA05D" transform="translate(0,0)"/>
<path d="" fill="#F4D063" transform="translate(0,0)"/>
<path d="" fill="#E2975B" transform="translate(0,0)"/>
<path d="" fill="#E1985B" transform="translate(0,0)"/>
<path d="" fill="#E79E5F" transform="translate(0,0)"/>
<path d="" fill="#5D6265" transform="translate(0,0)"/>
<path d="" fill="#DA9459" transform="translate(0,0)"/>
<path d="" fill="#5C6365" transform="translate(0,0)"/>
<path d="" fill="#5B6266" transform="translate(0,0)"/>
<path d="" fill="#CE945B" transform="translate(0,0)"/>
<path d="" fill="#63686B" transform="translate(0,0)"/>
<path d="" fill="#62686B" transform="translate(0,0)"/>
<path d="" fill="#62676C" transform="translate(0,0)"/>
<path d="" fill="#62666A" transform="translate(0,0)"/>
<path d="" fill="#60696A" transform="translate(0,0)"/>
<path d="" fill="#62686B" transform="translate(0,0)"/>
<path d="" fill="#62666B" transform="translate(0,0)"/>
<path d="" fill="#61676A" transform="translate(0,0)"/>
<path d="" fill="#EAC766" transform="translate(0,0)"/>
<path d="" fill="#CFB066" transform="translate(0,0)"/>
<path d="" fill="#5C6168" transform="translate(0,0)"/>
<path d="" fill="#5D6366" transform="translate(0,0)"/>
<path d="" fill="#88816B" transform="translate(0,0)"/>
<path d="" fill="#8B836C" transform="translate(0,0)"/>
<path d="" fill="#827968" transform="translate(0,0)"/>
<path d="" fill="#596065" transform="translate(0,0)"/>
<path d="" fill="#817D6C" transform="translate(0,0)"/>
<path d="" fill="#5D6266" transform="translate(0,0)"/>
<path d="" fill="#847E6F" transform="translate(0,0)"/>
<path d="" fill="#5B6266" transform="translate(0,0)"/>
<path d="" fill="#616669" transform="translate(0,0)"/>
<path d="" fill="#5A6167" transform="translate(0,0)"/>
<path d="" fill="#79776C" transform="translate(0,0)"/>
<path d="" fill="#5D6266" transform="translate(0,0)"/>
<path d="" fill="#77756B" transform="translate(0,0)"/>
<path d="" fill="#63686C" transform="translate(0,0)"/>
<path d="" fill="#5B6265" transform="translate(0,0)"/>
<path d="" fill="#5C6366" transform="translate(0,0)"/>
<path d="" fill="#5D6467" transform="translate(0,0)"/>
<path d="" fill="#676867" transform="translate(0,0)"/>
<path d="" fill="#5D6369" transform="translate(0,0)"/>
<path d="" fill="#5A6064" transform="translate(0,0)"/>
<path d="" fill="#5B6266" transform="translate(0,0)"/>
<path d="" fill="#636669" transform="translate(0,0)"/>
<path d="" fill="#5C6166" transform="translate(0,0)"/>
<path d="" fill="#60656B" transform="translate(0,0)"/>
<path d="" fill="#656868" transform="translate(0,0)"/>
<path d="" fill="#5C6064" transform="translate(0,0)"/>
<path d="" fill="#5C6267" transform="translate(0,0)"/>
<path d="" fill="#606467" transform="translate(0,0)"/>
<path d="" fill="#5F6467" transform="translate(0,0)"/>
<path d="" fill="#616768" transform="translate(0,0)"/>
<path d="" fill="#616669" transform="translate(0,0)"/>
<path d="" fill="#606568" transform="translate(0,0)"/>
<path d="" fill="#626668" transform="translate(0,0)"/>
<path d="" fill="#616568" transform="translate(0,0)"/>
<path d="" fill="#63666A" transform="translate(0,0)"/>
<path d="" fill="#636769" transform="translate(0,0)"/>
<path d="" fill="#62666A" transform="translate(0,0)"/>
<path d="" fill="#626469" transform="translate(0,0)"/>
<path d="" fill="#62696B" transform="translate(0,0)"/>
<path d="" fill="#5A6063" transform="translate(0,0)"/>
<path d="" fill="#5F6467" transform="translate(0,0)"/>
<path d="" fill="#5A6264" transform="translate(0,0)"/>
<path d="" fill="#5C6366" transform="translate(0,0)"/>
<path d="" fill="#61676B" transform="translate(0,0)"/>
<path d="" fill="#606569" transform="translate(0,0)"/>
<path d="" fill="#626769" transform="translate(0,0)"/>
<path d="" fill="#626769" transform="translate(0,0)"/>
<path d="" fill="#626768" transform="translate(0,0)"/>
<path d="" fill="#63696A" transform="translate(0,0)"/>
<path d="" fill="#616969" transform="translate(0,0)"/>
<path d="" fill="#616569" transform="translate(0,0)"/>
<path d="" fill="#616669" transform="translate(0,0)"/>
<path d="" fill="#61676A" transform="translate(0,0)"/>
<path d="" fill="#61666A" transform="translate(0,0)"/>
<path d="" fill="#5A6166" transform="translate(0,0)"/>
<path d="" fill="#5B6065" transform="translate(0,0)"/>
<path d="" fill="#5A6065" transform="translate(0,0)"/>
<path d="" fill="#606569" transform="translate(0,0)"/>
<path d="" fill="#5E6266" transform="translate(0,0)"/>
<path d="" fill="#616669" transform="translate(0,0)"/>
<path d="" fill="#61666A" transform="translate(0,0)"/>
<path d="" fill="#5B6165" transform="translate(0,0)"/>
<path d="" fill="#62696B" transform="translate(0,0)"/>
<path d="" fill="#5B6264" transform="translate(0,0)"/>
<path d="" fill="#5E6666" transform="translate(0,0)"/>
<path d="" fill="#5E6569" transform="translate(0,0)"/>
<path d="" fill="#606767" transform="translate(0,0)"/>
<path d="" fill="#616569" transform="translate(0,0)"/>
<path d="" fill="#595F65" transform="translate(0,0)"/>
<path d="" fill="#63686A" transform="translate(0,0)"/>
<path d="" fill="#5C6064" transform="translate(0,0)"/>
<path d="" fill="#5A6063" transform="translate(0,0)"/>
<path d="" fill="#616669" transform="translate(0,0)"/>
<path d="" fill="#616669" transform="translate(0,0)"/>
<path d="" fill="#63676B" transform="translate(0,0)"/>
<path d="" fill="#606669" transform="translate(0,0)"/>
<path d="" fill="#61666B" transform="translate(0,0)"/>
<path d="" fill="#61666A" transform="translate(0,0)"/>
<path d="" fill="#575D62" transform="translate(0,0)"/>
<path d="" fill="#62666B" transform="translate(0,0)"/>
<path d="" fill="#61676B" transform="translate(0,0)"/>
<path d="" fill="#626769" transform="translate(0,0)"/>
<path d="" fill="#61666B" transform="translate(0,0)"/>
<path d="" fill="#62676B" transform="translate(0,0)"/>
<path d="" fill="#61676B" transform="translate(0,0)"/>
<path d="" fill="#62686C" transform="translate(0,0)"/>
<path d="" fill="#62676B" transform="translate(0,0)"/>
<path d="" fill="#62676C" transform="translate(0,0)"/>
<path d="" fill="#616669" transform="translate(0,0)"/>
<path d="" fill="#616769" transform="translate(0,0)"/>
<path d="" fill="#63676A" transform="translate(0,0)"/>
<path d="" fill="#61666B" transform="translate(0,0)"/>
<path d="" fill="#62686A" transform="translate(0,0)"/>
<path d="" fill="#62686C" transform="translate(0,0)"/>
<path d="" fill="#61686C" transform="translate(0,0)"/>
<path d="" fill="#63686C" transform="translate(0,0)"/>
<path d="" fill="#61666A" transform="translate(0,0)"/>
<path d="" fill="#61676A" transform="translate(0,0)"/>
<path d="" fill="#61666A" transform="translate(0,0)"/>
<path d="" fill="#61676B" transform="translate(0,0)"/>
<path d="" fill="#62686B" transform="translate(0,0)"/>
<path d="" fill="#63696B" transform="translate(0,0)"/>
<path d="" fill="#62686B" transform="translate(0,0)"/>
<path d="" fill="#63686D" transform="translate(0,0)"/>
<path d="" fill="#62696B" transform="translate(0,0)"/>
<path d="" fill="#63696B" transform="translate(0,0)"/>
<path d="" fill="#63686C" transform="translate(0,0)"/>
<path d="" fill="#64686B" transform="translate(0,0)"/>
<path d="" fill="#62676B" transform="translate(0,0)"/>
<path d="" fill="#62686B" transform="translate(0,0)"/>
<path d="" fill="#62686C" transform="translate(0,0)"/>
<path d="" fill="#62676C" transform="translate(0,0)"/>
<path d="" fill="#63696D" transform="translate(0,0)"/>
<path d="" fill="#62686B" transform="translate(0,0)"/>
<path d="" fill="#62676B" transform="translate(0,0)"/>
<path d="" fill="#62686C" transform="translate(0,0)"/>
<path d="" fill="#62676B" transform="translate(0,0)"/>
<path d="" fill="#5C6365" transform="translate(0,0)"/>
<path d="" fill="#606366" transform="translate(0,0)"/>
<path d="" fill="#5C6165" transform="translate(0,0)"/>
<path d="" fill="#585F63" transform="translate(0,0)"/>
<path d="" fill="#5A6163" transform="translate(0,0)"/>
</svg>
